<svg version="1.1" id="Layer_1" xmlns="http://www.w3.org/2000/svg" xmlns:xlink="http://www.w3.org/1999/xlink" x="0px" y="0px"
	 width="100%" viewBox="0 0 500 500" enable-background="new 0 0 500 500" xml:space="preserve">
<path fill="#FEFEFF" opacity="1.000000" stroke="none" 
	d="
M263.000000,501.000000 
	C175.333359,501.000000 88.166710,501.000000 1.000047,501.000000 
	C1.000031,334.333405 1.000031,167.666794 1.000016,1.000136 
	C167.666565,1.000091 334.333130,1.000091 500.999756,1.000045 
	C500.999847,167.666519 500.999847,334.333038 500.999939,500.999786 
	C421.833344,501.000000 342.666656,501.000000 263.000000,501.000000 
M266.983459,149.269104 
	C265.339600,149.215988 263.695740,149.162872 261.168610,148.953781 
	C258.781219,148.903091 256.393799,148.852402 253.717499,148.694016 
	C253.717499,148.694016 253.426865,148.797043 253.011551,148.174759 
	C249.617264,146.900192 248.381317,144.568924 248.612717,140.874542 
	C248.944504,135.577591 249.243530,130.183411 248.610352,124.945122 
	C247.808365,118.310074 250.496552,114.876938 256.450867,112.585518 
	C258.907684,111.640053 260.672668,108.896919 262.997070,106.625427 
	C262.997070,106.625427 263.098907,106.214035 263.757935,106.014198 
	C266.423370,101.361816 270.533539,96.979942 271.465454,92.002968 
	C273.676239,80.195923 270.294006,69.385223 260.553192,61.736294 
	C250.503220,53.844604 239.523041,51.862556 227.600830,58.259739 
	C214.156296,65.473770 207.472916,80.894981 212.867645,96.495239 
	C215.952515,105.415962 222.139587,111.304794 230.591934,114.945908 
	C233.991928,116.410553 235.280045,118.613953 235.149399,122.289902 
	C234.924881,128.607513 235.005905,134.941711 235.150085,141.264587 
	C235.238876,145.158325 233.726669,146.923523 229.701752,147.339981 
	C221.958649,148.141098 214.187515,149.041245 206.566879,150.585648 
	C184.822845,154.992249 163.855362,161.863678 144.212006,172.272491 
	C136.509537,176.353989 129.297485,181.360992 121.258003,186.160461 
	C120.173225,186.842865 119.088448,187.525253 117.309753,188.211319 
	C113.831657,189.378799 110.353561,190.546280 106.715363,190.951721 
	C106.443375,189.949081 106.171387,188.946457 106.634888,187.698517 
	C106.987709,185.181793 107.682236,182.657440 107.626251,180.149841 
	C107.484978,173.821854 107.005806,167.501404 106.974632,160.486038 
	C108.093086,159.614120 109.082748,158.326859 110.349747,157.933990 
	C124.290833,153.611267 132.942642,140.595413 131.288742,125.302574 
	C129.982864,113.227783 119.600685,101.118927 108.001442,98.486137 
	C93.349091,95.160362 76.874344,104.630104 72.226959,118.182663 
	C65.828926,136.840363 77.215164,151.327194 89.285004,156.589951 
	C92.946739,158.186554 94.319931,160.060898 94.259071,163.992233 
	C94.083687,175.321762 94.000099,186.667847 94.449310,197.984848 
	C94.641884,202.836594 92.433479,205.652756 89.188705,208.538727 
	C76.276558,220.023132 63.375935,231.525162 50.694473,243.262070 
	C45.290028,248.263992 45.351471,253.886551 50.678978,258.784729 
	C63.525421,270.595947 76.511436,282.257446 89.563896,293.841034 
	C92.744415,296.663605 94.573891,299.528076 94.419548,304.083313 
	C94.035957,315.404999 93.974449,326.752045 94.281807,338.075378 
	C94.401016,342.467163 92.425117,344.281067 88.883759,345.822571 
	C86.601318,346.816071 84.659981,348.593201 81.934677,350.407440 
	C80.280617,352.257721 78.626556,354.107971 76.319717,356.150696 
	C71.927292,361.530487 70.009201,367.854218 70.390778,374.617493 
	C70.763947,381.231689 72.112854,387.734863 78.074936,392.603851 
	C78.074936,392.603851 78.352066,392.998627 78.294319,393.657806 
	C84.791397,402.286285 98.793144,406.696716 109.576614,402.959412 
	C113.289597,401.672577 116.514572,398.977692 120.524841,396.745270 
	C121.012642,396.151367 121.500435,395.557434 122.637108,394.877533 
	C123.379082,393.917480 124.121056,392.957397 125.070450,391.690674 
	C125.070450,391.690674 125.121246,391.323944 125.760536,391.028839 
	C133.288498,380.246246 133.972717,368.808685 127.731308,359.398407 
	C127.348885,359.003693 126.966469,358.608978 126.661850,357.519501 
	C123.825775,351.006226 118.350426,347.255981 112.209412,344.615417 
	C108.888275,343.187378 107.708641,341.363007 107.689552,337.900116 
	C107.655754,331.770905 107.053162,325.645203 107.003746,319.515503 
	C106.979370,316.491272 107.658249,313.461395 108.018906,310.434021 
	C111.022293,311.426025 114.487854,311.765930 116.955025,313.514496 
	C134.701538,326.092102 154.204803,335.165314 174.351425,343.021820 
	C193.537338,350.503693 213.774246,352.955475 234.465073,355.978546 
	C234.792969,356.319214 235.120880,356.659851 235.253479,357.918579 
	C234.999435,367.315857 234.745392,376.713104 234.237839,386.238678 
	C234.237839,386.238678 234.114136,386.494476 233.407944,386.368774 
	C217.422974,392.733429 209.871048,403.867279 211.393021,420.764984 
	C212.094254,428.550323 215.244858,435.818237 223.370041,440.000671 
	C223.370041,440.000671 223.790726,440.089294 223.987289,440.763214 
	C230.756241,446.894989 238.997589,447.377411 247.277832,445.997223 
	C251.098343,445.360443 254.597382,442.794952 258.647614,441.035767 
	C258.647614,441.035767 258.987061,440.803772 259.648987,440.788574 
	C261.073425,439.190857 262.497833,437.593140 264.118988,435.703064 
	C264.118988,435.703064 264.135132,435.351044 264.719086,434.963776 
	C265.846100,433.767029 267.266479,432.737000 268.055634,431.348267 
	C278.187653,413.518311 268.018646,392.261108 248.789749,386.210602 
	C248.789749,386.210602 248.542953,386.106384 248.716461,385.164612 
	C248.681778,377.058838 248.725739,368.951660 248.579880,360.847870 
	C248.504852,356.679474 250.351227,354.828949 254.476929,354.646057 
	C256.086151,354.574707 257.657135,353.640778 259.936310,353.200836 
	C260.627716,353.127197 261.319122,353.053589 262.582977,353.447357 
	C267.679352,352.513611 272.775726,351.579834 278.688446,350.772369 
	C279.470825,350.556519 280.253204,350.340668 281.676605,350.478729 
	C283.413330,349.904724 285.150024,349.330750 287.691650,348.853241 
	C288.466888,348.662933 289.242126,348.472595 290.708405,348.532959 
	C309.999695,343.761414 327.965637,335.679016 345.401917,326.365448 
	C351.188568,323.274567 356.636139,319.548828 362.824951,315.849915 
	C364.218109,314.902527 365.611298,313.955170 367.780731,312.983093 
	C370.025055,312.248688 372.269409,311.514282 375.312683,310.518433 
	C375.312683,318.902191 374.855591,326.391357 375.448700,333.796387 
	C375.980103,340.431061 373.449127,343.997803 367.638977,347.007019 
	C353.701660,354.225616 347.625183,370.267944 353.726196,384.309845 
	C355.815125,389.117645 360.108276,393.106720 363.860260,397.023560 
	C371.290466,404.780182 380.673645,406.417725 390.502075,403.270966 
	C400.734161,399.995026 408.987091,393.606781 411.673370,382.689697 
	C415.834473,365.778839 410.346283,353.769867 394.965057,345.784515 
	C390.176392,343.298370 388.696747,339.957306 388.700500,335.190308 
	C388.708710,324.696289 388.439789,314.189636 388.916870,303.716949 
	C389.040314,301.006561 390.950409,297.836029 392.988190,295.849792 
	C401.051910,287.990021 409.492218,280.516541 417.916748,272.905914 
	C417.916748,272.905914 417.908081,272.782227 418.585297,272.759644 
	C423.690247,267.168701 428.795197,261.577728 434.283630,255.630234 
	C434.513855,255.368134 434.744080,255.106033 435.611694,254.617126 
	C436.127899,252.723389 437.703674,249.968521 436.982178,249.080780 
	C433.303711,244.554825 429.031311,240.511566 424.654480,236.015610 
	C424.654480,236.015610 424.253296,235.884796 424.072418,235.259750 
	C423.016602,234.259415 421.960815,233.259079 420.698608,231.725266 
	C420.220367,231.443085 419.742096,231.160919 419.051208,230.229004 
	C415.849609,227.210632 412.715637,224.115829 409.421448,221.202179 
	C407.397614,219.412155 405.128693,217.899231 402.644653,216.001175 
	C402.644653,216.001175 402.243317,215.888779 402.023804,215.242035 
	C399.324615,213.235413 396.625427,211.228790 393.706604,208.698486 
	C393.396942,208.493774 393.087280,208.289062 392.599762,207.416779 
	C391.214661,204.521729 388.748505,201.667511 388.637360,198.724350 
	C388.224487,187.794815 388.713379,176.834625 388.595734,165.888824 
	C388.548615,161.505508 390.157440,158.986450 394.187042,157.005814 
	C402.971863,152.687927 409.858368,146.409698 412.135590,136.286057 
	C414.680389,124.972900 411.780060,112.301956 402.012970,106.977547 
	C402.012970,106.977547 402.181244,106.836601 402.044586,106.192192 
	C400.687012,105.209869 399.329407,104.227547 397.630646,102.993454 
	C397.630646,102.993454 397.217682,102.897232 396.955261,102.254105 
	C396.452759,101.830238 396.002289,101.314606 395.440186,100.995865 
	C379.471252,91.940712 356.881897,102.756783 352.247559,121.662811 
	C349.571838,132.578476 354.348022,145.864059 362.972107,151.026642 
	C362.972107,151.026642 362.828461,151.144455 362.956909,151.810028 
	C365.281281,153.613419 367.419922,155.761093 369.973907,157.138824 
	C373.730896,159.165512 375.697449,161.662018 375.427582,166.199951 
	C375.072906,172.165344 375.356018,178.168594 375.362793,184.155563 
	C375.365662,186.706924 375.363281,189.258270 375.363281,192.838013 
	C372.658997,191.705551 371.153503,191.199982 369.763123,190.473969 
	C351.250671,180.807343 333.029053,170.523270 314.134827,161.674500 
	C305.071350,157.429764 294.743347,155.885117 284.218018,152.875809 
	C281.551086,152.410126 278.884186,151.944458 275.680267,151.089966 
	C274.582031,151.005753 273.483765,150.921524 272.056244,150.312164 
	C271.044403,150.222031 270.032532,150.131897 268.483154,149.874298 
	C268.109955,149.864273 267.736725,149.854263 266.983459,149.269104 
z"/>
<path fill="#6C99E6" opacity="1.000000" stroke="none" 
	d="
M424.253296,235.884796 
	C424.253296,235.884796 424.654480,236.015610 424.861511,236.473190 
	C426.443146,238.518036 427.760406,240.159698 429.203735,241.681793 
	C432.716492,245.386307 436.112457,249.112427 434.974335,254.843933 
	C434.744080,255.106033 434.513855,255.368134 433.755005,255.847534 
	C430.250916,258.785004 427.084839,261.328979 424.357147,264.278320 
	C421.953094,266.877686 420.038696,269.929932 417.908081,272.782227 
	C417.908081,272.782227 417.916748,272.905914 417.508331,272.935242 
	C416.612762,273.062683 415.985107,272.999115 415.658905,273.282471 
	C406.653015,281.105957 397.614655,288.895081 388.775177,296.903442 
	C387.638062,297.933655 387.132355,300.113312 387.059387,301.792023 
	C386.598297,312.399475 386.082825,323.016754 386.122437,333.628784 
	C386.143555,339.283264 387.173004,344.504425 393.879456,347.124664 
	C402.930542,350.660919 408.376617,358.339783 410.723541,367.351593 
	C414.306793,381.110687 405.105530,396.361603 391.470856,401.009338 
	C379.182831,405.198090 368.376556,401.006989 359.281860,389.754761 
	C352.072693,380.835449 352.482941,371.373749 356.101105,361.778503 
	C358.757141,354.734772 364.678772,350.023529 371.453888,346.908630 
	C375.536377,345.031677 377.012939,342.276855 377.064606,337.997253 
	C377.162720,329.876129 377.816101,321.754547 377.673737,313.643097 
	C377.641388,311.799896 374.651367,308.272186 374.137787,308.466522 
	C371.556763,309.443176 369.345551,311.397095 367.004456,313.007782 
	C365.611298,313.955170 364.218109,314.902527 362.157257,315.941498 
	C360.990234,316.029907 360.490875,316.026703 359.825256,315.792511 
	C359.116455,316.041290 358.573914,316.521057 357.826416,317.272705 
	C350.631256,321.118347 343.669891,324.750153 336.638580,328.241211 
	C333.156067,329.970245 329.544891,331.440125 325.781555,332.757263 
	C322.702209,333.328186 319.833252,334.169128 316.975464,334.640076 
	C317.314240,332.846069 317.641846,331.422150 318.342804,329.991943 
	C320.803436,328.323975 322.890717,326.662292 325.349518,324.992645 
	C327.150299,324.645416 328.579559,324.306122 330.217468,324.236938 
	C335.551208,324.265564 339.003967,321.674744 340.984406,316.690369 
	C341.004730,315.968567 341.013794,315.556061 341.185547,315.031311 
	C341.348236,314.919098 341.741547,314.879608 342.065796,314.900574 
	C342.936920,314.391327 343.483826,313.861145 344.265991,313.113586 
	C345.268707,312.566254 346.036163,312.236298 347.175201,311.939697 
	C348.707367,311.063324 349.867920,310.153564 351.293701,309.084564 
	C352.309723,308.587769 353.060516,308.250244 354.136658,307.919891 
	C354.983002,307.361115 355.503937,306.795135 356.195068,306.105194 
	C356.365295,305.981232 356.778015,305.897522 357.102509,305.911804 
	C357.960602,305.379608 358.494171,304.833069 359.294006,304.105835 
	C360.630920,303.248779 361.701569,302.572418 363.104614,301.906433 
	C363.964539,301.337433 364.492004,300.758148 365.173004,300.060852 
	C365.326508,299.942871 365.705902,299.865326 366.062347,299.890106 
	C367.287750,299.015228 368.156738,298.115601 369.202515,297.099182 
	C369.379303,296.982391 369.796387,296.907440 370.120789,296.917603 
	C370.972290,296.374695 371.499359,295.821686 372.206909,295.140137 
	C372.387390,295.011597 372.820099,294.916077 373.201782,294.945740 
	C377.408234,292.039276 381.232941,289.103180 385.181824,285.912842 
	C385.798309,285.406342 386.290588,285.154053 387.115723,284.908691 
	C387.971771,284.330292 388.494995,283.745026 389.202148,282.959534 
	C389.655304,282.516937 389.924530,282.274536 390.538879,282.023956 
	C392.271576,280.720947 393.659149,279.426117 395.172363,277.844482 
	C396.445190,276.664886 397.592346,275.772064 399.105957,274.895691 
	C401.993561,272.308807 404.514679,269.705414 407.171082,266.801514 
	C409.136566,264.970215 410.966736,263.439423 413.159424,261.915283 
	C415.987946,259.222717 418.453918,256.523529 420.959290,253.509888 
	C421.163452,252.807892 421.328186,252.420364 421.729431,251.964371 
	C421.794556,251.252960 421.623199,250.610001 421.306519,249.708679 
	C421.059875,249.070404 420.958557,248.690445 420.879761,247.932358 
	C419.502899,246.415131 418.103485,245.276047 416.429993,244.079819 
	C415.787964,243.631729 415.420044,243.240784 415.002075,242.518311 
	C412.419891,239.409454 410.043793,236.465286 407.307648,233.906113 
	C404.998932,231.746735 402.272339,230.034134 399.447754,227.984756 
	C398.125732,226.851974 397.086670,225.858215 395.996643,224.526337 
	C394.898682,223.488495 393.851685,222.788773 392.593506,222.033035 
	C392.382324,221.977036 392.031586,221.716446 391.979218,221.395416 
	C385.554199,216.412155 379.181519,211.749924 372.521118,207.049683 
	C371.840912,206.621323 371.448456,206.231003 371.002838,205.506653 
	C365.836456,201.840546 360.723206,198.508453 355.442871,195.159821 
	C355.275787,195.143280 355.011566,194.936111 354.958557,194.595154 
	C350.821808,191.747208 346.721008,189.267273 342.667145,186.712799 
	C341.742615,186.130219 340.416290,185.365646 340.306610,184.546646 
	C340.202667,183.770920 341.314270,182.244492 342.134277,182.044540 
	C344.473145,181.474258 347.396484,180.438751 349.266388,181.324554 
	C355.813171,184.425888 362.008118,188.268234 368.350952,191.803619 
	C369.350464,192.360733 370.410034,192.817581 371.464996,193.266327 
	C375.396027,194.938553 377.075104,193.521835 377.041779,189.360443 
	C376.969788,180.362396 377.070496,171.362671 376.952057,162.365585 
	C376.933899,160.985626 376.547668,158.955414 375.609497,158.355759 
	C371.494049,155.725327 367.113098,153.510193 362.828461,151.144455 
	C362.828461,151.144455 362.972107,151.026642 362.936035,150.734055 
	C357.763062,143.316223 353.859497,136.185165 353.709869,126.636627 
	C353.469116,111.272598 372.417572,96.623749 385.136230,100.747978 
	C388.990448,101.997757 393.181122,102.209839 397.217682,102.897232 
	C397.217682,102.897232 397.630646,102.993454 397.849701,103.443817 
	C399.439606,104.874985 400.810425,105.855789 402.181244,106.836594 
	C402.181244,106.836601 402.012970,106.977547 402.058990,107.260315 
	C404.016266,109.986656 406.384308,112.198120 407.763336,114.912132 
	C415.696564,130.525238 409.487244,148.356140 393.391418,155.093307 
	C388.352600,157.202393 386.307068,160.713013 386.149506,165.226166 
	C385.767609,176.166763 385.697968,187.146072 386.217102,198.075836 
	C386.408752,202.110504 386.368958,207.555420 392.777618,208.084366 
	C393.087280,208.289062 393.396942,208.493774 393.879364,209.285645 
	C396.782532,211.878143 399.512909,213.883453 402.243317,215.888779 
	C402.243317,215.888779 402.644653,216.001175 402.856384,216.450897 
	C408.466705,221.559998 413.865265,226.219360 419.263855,230.878738 
	C419.742096,231.160919 420.220367,231.443085 420.832977,232.341324 
	C422.062653,233.933182 423.157990,234.908981 424.253296,235.884796 
M375.566406,146.093689 
	C387.546417,150.588303 401.140503,141.124863 400.989075,128.395844 
	C400.891235,120.171440 393.680054,111.984001 385.097382,110.352730 
	C377.066437,108.826317 368.282074,114.041206 364.904053,122.282654 
	C361.104309,131.552994 365.282318,139.040909 371.491638,143.710190 
	C372.546661,144.503571 373.751312,145.098022 375.566406,146.093689 
M399.813232,367.988495 
	C396.730591,357.248810 381.651398,352.230286 373.854431,356.983337 
	C365.684998,361.963470 361.334656,372.256531 365.105011,380.880005 
	C369.050720,389.904541 379.042206,394.270386 388.277893,391.005524 
	C397.766479,387.651215 402.689758,378.322083 399.813232,367.988495 
z"/>
<path fill="#77B5EB" opacity="1.000000" stroke="none" 
	d="
M105.899399,187.943817 
	C106.171387,188.946457 106.443375,189.949081 106.867630,191.634155 
	C110.406746,194.840988 115.516685,192.929398 118.003670,188.207642 
	C119.088448,187.525253 120.173225,186.842865 121.948586,186.076294 
	C128.560318,187.999008 128.677719,188.312714 125.851318,195.276611 
	C125.128265,195.683960 124.579117,195.855392 123.657303,196.024689 
	C121.196526,197.693573 119.108406,199.364594 116.827530,201.293213 
	C115.747284,202.660202 114.859810,203.769577 113.799522,204.970184 
	C113.626709,205.061401 113.242065,205.130676 112.867691,205.110657 
	C109.966171,206.993240 107.439026,208.895859 104.907356,210.844650 
	C104.902832,210.890823 104.810471,210.899734 104.465530,210.930511 
	C102.728951,212.262909 101.337303,213.564545 99.759628,215.140778 
	C97.255043,217.301407 94.840439,219.082001 92.634537,221.091705 
	C83.062874,229.812073 73.521454,238.566299 64.038773,247.383224 
	C61.364658,249.869614 61.321041,252.422623 64.259094,254.988235 
	C67.759285,258.044708 71.060280,261.328308 74.475983,264.482758 
	C82.636803,272.019348 90.814308,279.537872 98.996140,287.447052 
	C99.559196,292.026367 101.200752,295.058411 106.118546,295.096710 
	C107.144890,295.104675 108.406532,295.791199 109.145996,296.561981 
	C112.977509,300.555695 116.609200,304.741791 120.463028,308.712891 
	C121.479324,309.760101 122.953148,310.551636 124.363182,310.990723 
	C127.708031,312.032257 130.244324,313.607544 130.737915,319.216217 
	C125.444473,315.840118 119.046928,314.068512 117.483086,310.294159 
	C113.949287,301.765198 110.791115,304.644501 106.511566,308.762543 
	C106.043968,309.212524 105.505951,309.589264 104.629929,310.004272 
	C103.011261,310.203064 101.763275,310.397583 101.011780,310.514740 
	C99.677551,308.697357 98.640388,307.284637 97.603218,305.871887 
	C97.178589,306.023987 96.753960,306.176056 96.329323,306.328156 
	C96.220428,307.901001 96.022095,309.473572 96.017250,311.046722 
	C95.987549,320.690948 96.106041,330.337433 95.903549,339.977478 
	C95.867706,341.683563 95.019943,344.141418 93.742134,344.904999 
	C90.246307,346.993988 86.320992,348.364227 82.565765,350.019135 
	C84.659981,348.593201 86.601318,346.816071 88.883759,345.822571 
	C92.425117,344.281067 94.401016,342.467163 94.281807,338.075378 
	C93.974449,326.752045 94.035957,315.404999 94.419548,304.083313 
	C94.573891,299.528076 92.744415,296.663605 89.563896,293.841034 
	C76.511436,282.257446 63.525421,270.595947 50.678978,258.784729 
	C45.351471,253.886551 45.290028,248.263992 50.694473,243.262070 
	C63.375935,231.525162 76.276558,220.023132 89.188705,208.538727 
	C92.433479,205.652756 94.641884,202.836594 94.449310,197.984848 
	C94.000099,186.667847 94.083687,175.321762 94.259071,163.992233 
	C94.319931,160.060898 92.946739,158.186554 89.285004,156.589951 
	C77.215164,151.327194 65.828926,136.840363 72.226959,118.182663 
	C76.874344,104.630104 93.349091,95.160362 108.001442,98.486137 
	C119.600685,101.118927 129.982864,113.227783 131.288742,125.302574 
	C132.942642,140.595413 124.290833,153.611267 110.349747,157.933990 
	C109.082748,158.326859 108.093086,159.614120 106.606781,161.106720 
	C102.605736,170.420624 106.072151,179.205795 105.899399,187.943817 
M86.765717,117.339745 
	C80.128586,125.879105 81.560707,136.746536 90.246674,143.754547 
	C98.133400,150.117737 108.699898,148.501175 115.768143,139.850037 
	C121.554245,132.768173 120.020027,120.645012 112.589798,114.187157 
	C105.833824,108.315308 92.901955,108.926331 86.765717,117.339745 
z"/>
<path fill="#73A6E9" opacity="1.000000" stroke="none" 
	d="
M290.017365,348.282257 
	C289.242126,348.472595 288.466888,348.662933 287.054901,348.586060 
	C284.623962,348.920837 282.829742,349.522797 281.035553,350.124817 
	C280.253204,350.340668 279.470825,350.556519 278.099304,350.424011 
	C275.927124,349.385284 274.404480,348.417969 272.749603,348.057159 
	C268.023438,347.026581 265.337677,350.767548 262.010529,352.979980 
	C261.319122,353.053589 260.627716,353.127197 259.132629,353.114227 
	C248.182480,352.940460 247.051285,354.135254 246.967117,364.348358 
	C246.918289,370.274109 246.488586,376.198883 246.537674,382.121552 
	C246.548737,383.455292 247.840668,384.778381 248.542953,386.106384 
	C248.542953,386.106384 248.789749,386.210602 248.962555,386.612152 
	C250.321503,388.382660 251.304810,390.028381 252.729141,391.072388 
	C258.707428,395.454010 264.656860,398.872101 267.479828,407.191895 
	C269.801514,414.034485 269.778412,419.727386 267.939728,425.991058 
	C266.995880,429.206238 265.423462,432.236969 264.135132,435.351044 
	C264.135132,435.351044 264.118988,435.703064 263.686462,435.883362 
	C261.831635,437.643707 260.409363,439.223755 258.987061,440.803772 
	C258.987061,440.803772 258.647614,441.035767 258.050598,441.061829 
	C249.902191,444.627106 242.095245,446.381927 233.869568,443.917023 
	C230.435944,442.888062 227.145996,441.379700 223.790726,440.089294 
	C223.790726,440.089294 223.370041,440.000671 223.147003,439.557495 
	C220.237350,435.397308 216.518082,432.046387 215.047409,427.898285 
	C209.444489,412.094849 214.034576,401.511871 226.480667,391.776184 
	C228.913635,389.873016 231.564026,388.247864 234.114136,386.494507 
	C234.114136,386.494476 234.237839,386.238678 234.673065,386.024231 
	C238.687866,376.488464 236.916183,366.938782 236.281937,357.442261 
	C236.270905,357.277191 235.738113,357.147003 235.448776,357.000519 
	C235.120880,356.659851 234.792969,356.319214 234.116119,355.408936 
	C229.661499,353.891876 225.587738,352.763977 221.444077,352.031586 
	C210.080353,350.023102 198.687241,348.180878 187.297028,346.271393 
	C188.804352,342.544556 189.846375,339.968201 190.933029,337.281464 
	C192.564148,337.281464 194.269775,337.281464 196.362274,337.235931 
	C198.498795,337.695953 200.248444,338.201508 202.131439,338.983612 
	C206.031052,339.988464 208.907578,344.849213 213.811676,341.642090 
	C214.709656,341.661407 215.308548,341.720398 216.142151,342.093445 
	C218.540833,342.369049 220.704819,342.330597 223.268158,342.232422 
	C224.443802,342.345398 225.220108,342.518127 226.093201,342.933502 
	C227.105301,343.171448 228.020615,343.166748 229.404327,343.095337 
	C237.936981,343.074524 246.001266,343.120392 254.225433,343.371338 
	C254.933029,343.356476 255.480713,343.136505 256.294495,342.849060 
	C256.923767,342.802887 257.286957,342.824219 258.093414,342.897644 
	C260.690887,342.499115 262.845123,342.048523 265.371033,341.451965 
	C266.534668,341.301239 267.326630,341.296539 268.340393,341.500885 
	C269.374603,341.807037 270.186981,341.904144 271.367126,342.000092 
	C272.823608,341.390839 273.912262,340.782745 275.380341,340.065247 
	C276.802734,339.820648 277.845734,339.685455 279.065857,339.870209 
	C285.150970,339.130219 291.177795,338.496246 296.933136,336.889709 
	C302.608154,335.305634 304.582458,335.718231 307.808197,341.812378 
	C305.967285,342.210144 304.034119,343.295288 302.647400,342.812134 
	C296.572449,340.695526 292.494690,342.454681 290.017365,348.282257 
M234.268097,433.606659 
	C244.827866,438.420166 256.670654,431.496582 259.512634,421.184967 
	C261.901917,412.515900 257.498474,401.349792 244.973923,398.433960 
	C237.632874,396.724884 227.528458,401.727295 224.906616,408.689911 
	C220.856445,419.445679 223.235107,426.184723 234.268097,433.606659 
z"/>
<path fill="#6FA6E9" opacity="1.000000" stroke="none" 
	d="
M263.098907,106.214035 
	C263.098907,106.214035 262.997070,106.625427 262.547913,106.846802 
	C258.535828,109.137901 254.679016,110.844818 251.515503,113.407585 
	C249.477936,115.058212 247.370514,117.883446 247.186020,120.325165 
	C246.624695,127.754379 246.964539,135.253036 246.988068,142.724548 
	C247.001465,146.975723 248.877060,149.321686 253.426865,148.797043 
	C253.426865,148.797043 253.717499,148.694016 253.926727,149.153717 
	C260.715210,150.728333 267.286377,151.897385 273.885590,152.878006 
	C274.578217,152.980927 275.436066,151.971924 276.217255,151.478790 
	C278.884186,151.944458 281.551086,152.410126 284.610657,153.354294 
	C286.609497,156.016586 287.812286,158.796631 289.927612,160.228134 
	C292.382843,161.889679 293.354553,163.566513 292.537628,166.266632 
	C290.096710,165.796463 288.048370,165.366928 286.006287,164.704361 
	C286.012573,164.471329 285.992737,164.005035 286.242126,163.803116 
	C285.178864,161.784622 283.370636,158.215973 282.630981,158.425186 
	C275.953247,160.313919 269.738312,158.001404 263.350769,157.229980 
	C262.686768,157.149780 261.786011,159.030090 260.593689,160.050217 
	C259.118805,160.028885 258.045349,159.958099 256.750671,159.625916 
	C255.625885,159.283707 254.722305,159.202896 253.514099,159.132065 
	C252.806137,159.095200 252.402802,159.048340 251.709259,158.700836 
	C245.275314,158.617126 239.131561,158.834045 232.636276,159.092117 
	C231.577621,159.124817 230.870514,159.116379 229.738617,159.052170 
	C227.177597,159.414948 225.041351,159.833511 222.495453,160.407745 
	C220.031479,160.615509 217.977158,160.667572 215.715805,160.508942 
	C214.666168,160.562317 213.823593,160.826355 212.713562,161.144485 
	C212.083374,161.217087 211.720657,161.235596 210.937195,161.169449 
	C208.342010,161.733978 206.167572,162.383179 203.725677,163.100189 
	C203.092407,163.199478 202.726578,163.230942 202.022141,163.187286 
	C201.120499,163.414703 200.557449,163.717224 199.633484,164.087524 
	C197.601990,164.494156 195.931396,164.832993 193.888336,165.129883 
	C192.009491,165.729385 190.503143,166.370834 188.728745,167.080429 
	C188.094208,167.182968 187.727722,167.217361 186.961792,167.193298 
	C182.709106,168.412704 178.855896,169.690552 174.963409,170.622131 
	C173.364883,167.576996 170.006729,164.539139 174.926849,162.249802 
	C180.260971,159.767853 185.787247,157.329926 191.494202,156.093399 
	C204.245712,153.330536 217.146576,151.237701 230.017899,149.056595 
	C235.210556,148.176682 236.921066,146.607132 236.981781,141.239838 
	C237.053421,134.907852 236.736557,128.559845 237.086685,122.246429 
	C237.352417,117.454849 234.854004,115.421921 231.208969,112.960785 
	C225.962845,109.418610 220.237137,105.486992 216.974304,100.300858 
	C204.035278,79.734871 223.364548,54.895683 242.249680,56.842804 
	C253.069092,57.958321 261.230103,62.204964 266.376343,71.805260 
	C271.961090,82.223640 271.701050,92.447006 265.081940,102.393753 
	C264.291748,103.581215 263.753784,104.936523 263.098907,106.214035 
M253.983246,99.535522 
	C255.392181,97.697754 257.151123,96.030380 258.144348,93.990211 
	C261.105225,87.908241 261.187683,81.669823 257.221710,76.027748 
	C253.108978,70.176857 247.639725,66.271133 239.976822,67.096527 
	C232.479233,67.904114 224.930008,74.637131 223.334854,81.729836 
	C221.649338,89.224289 225.054703,97.144615 231.835388,101.500786 
	C238.885651,106.030136 246.393204,105.526787 253.983246,99.535522 
z"/>
<path fill="#75B2EA" opacity="1.000000" stroke="none" 
	d="
M82.250221,350.213287 
	C86.320992,348.364227 90.246307,346.993988 93.742134,344.904999 
	C95.019943,344.141418 95.867706,341.683563 95.903549,339.977478 
	C96.106041,330.337433 95.987549,320.690948 96.017250,311.046722 
	C96.022095,309.473572 96.220428,307.901001 96.329323,306.328156 
	C96.753960,306.176056 97.178589,306.023987 97.603218,305.871887 
	C98.640388,307.284637 99.677551,308.697357 101.011780,310.514740 
	C101.763275,310.397583 103.011261,310.203064 104.629196,310.472748 
	C105.000656,319.471527 104.848862,328.010193 105.075027,336.538818 
	C105.172928,340.230499 105.417809,343.946045 109.725929,346.064728 
	C113.643936,347.991547 117.173050,350.748810 120.756302,353.304443 
	C123.782951,355.463043 123.734291,358.701630 121.829994,361.169830 
	C120.978165,362.273895 118.035873,361.765076 115.727013,361.858154 
	C105.485748,350.892975 89.687279,354.695251 85.474884,364.225464 
	C83.338631,369.058594 83.850533,375.062195 83.135803,380.925507 
	C84.077744,382.540619 85.049110,383.766876 86.308189,385.103119 
	C87.405190,386.119019 88.214485,387.024933 89.061172,388.279266 
	C89.824280,389.050446 90.550003,389.473206 91.576691,389.908234 
	C92.253342,390.057617 92.629021,390.194733 93.088402,390.647888 
	C93.946312,391.251404 94.720520,391.538879 95.921410,391.790253 
	C99.566696,391.839447 102.785309,391.924744 106.157753,392.230042 
	C106.874786,392.077057 107.437988,391.704041 108.313873,391.170441 
	C111.083214,389.339600 113.539864,387.669342 116.348839,385.942871 
	C117.081398,385.110474 117.461632,384.334259 117.843124,383.193542 
	C118.390297,381.219086 118.936203,379.609131 119.724998,377.940491 
	C119.989159,377.258911 120.010429,376.636078 119.975891,375.599548 
	C119.577248,372.465485 119.234413,369.745117 119.199387,366.889343 
	C120.912254,366.582275 123.081543,365.759338 123.587952,366.353546 
	C125.609322,368.725403 129.089127,372.242371 128.442322,374.057098 
	C126.417282,379.738770 124.040039,385.114685 125.121246,391.323944 
	C125.121246,391.323944 125.070450,391.690674 124.642365,391.883057 
	C123.472267,393.038147 122.730247,394.000824 121.988235,394.963501 
	C121.500435,395.557434 121.012642,396.151367 120.031296,396.555908 
	C119.281998,396.153076 118.997200,395.966003 118.775406,395.721680 
	C117.695305,394.532166 116.632072,393.327362 115.562866,392.127991 
	C114.931793,393.898712 114.501137,395.779541 113.607574,397.406067 
	C112.865150,398.757416 111.741356,400.617096 110.506729,400.866516 
	C100.706604,402.846130 91.022438,403.763092 83.037903,395.643677 
	C81.829239,394.414581 79.931221,393.863373 78.352066,392.998627 
	C78.352066,392.998627 78.074936,392.603851 78.034836,391.990112 
	C78.819405,390.243805 79.885719,389.210480 80.402802,387.951569 
	C80.953140,386.611603 81.599602,384.726868 81.048325,383.701294 
	C80.597321,382.862366 78.457024,382.751526 77.046890,382.678070 
	C76.246956,382.636414 75.409271,383.319458 73.264023,384.251770 
	C73.043777,379.134460 72.222275,374.742523 72.838699,370.562622 
	C73.570656,365.599243 75.539604,360.818268 76.972504,355.958252 
	C78.626556,354.107971 80.280617,352.257721 82.250221,350.213287 
z"/>
<path fill="#7BB1E9" opacity="1.000000" stroke="none" 
	d="
M125.440887,391.176392 
	C124.040039,385.114685 126.417282,379.738770 128.442322,374.057098 
	C129.089127,372.242371 125.609322,368.725403 123.587952,366.353546 
	C123.081543,365.759338 120.912254,366.582275 118.938812,366.697510 
	C117.594376,365.090118 116.818321,363.539154 116.042274,361.988220 
	C118.035873,361.765076 120.978165,362.273895 121.829994,361.169830 
	C123.734291,358.701630 123.782951,355.463043 120.756302,353.304443 
	C117.173050,350.748810 113.643936,347.991547 109.725929,346.064728 
	C105.417809,343.946045 105.172928,340.230499 105.075027,336.538818 
	C104.848862,328.010193 105.000656,319.471527 104.999878,310.468475 
	C105.505951,309.589264 106.043968,309.212524 106.511566,308.762543 
	C110.791115,304.644501 113.949287,301.765198 117.483086,310.294159 
	C119.046928,314.068512 125.444473,315.840118 130.737915,319.216217 
	C130.244324,313.607544 127.708031,312.032257 124.363182,310.990723 
	C122.953148,310.551636 121.479324,309.760101 120.463028,308.712891 
	C116.609200,304.741791 112.977509,300.555695 109.145996,296.561981 
	C108.406532,295.791199 107.144890,295.104675 106.118546,295.096710 
	C101.200752,295.058411 99.559196,292.026367 99.341583,287.472961 
	C105.942673,291.473816 112.231895,295.800201 118.471695,300.196716 
	C134.478836,311.475372 151.757187,320.386230 169.906601,327.616821 
	C178.513580,331.045776 187.280777,334.072510 195.975388,337.281464 
	C194.269775,337.281464 192.564148,337.281464 190.933029,337.281464 
	C189.846375,339.968201 188.804352,342.544556 187.297028,346.271393 
	C198.687241,348.180878 210.080353,350.023102 221.444077,352.031586 
	C225.587738,352.763977 229.661499,353.891876 233.884766,355.140137 
	C213.774246,352.955475 193.537338,350.503693 174.351425,343.021820 
	C154.204803,335.165314 134.701538,326.092102 116.955025,313.514496 
	C114.487854,311.765930 111.022293,311.426025 108.018906,310.434021 
	C107.658249,313.461395 106.979370,316.491272 107.003746,319.515503 
	C107.053162,325.645203 107.655754,331.770905 107.689552,337.900116 
	C107.708641,341.363007 108.888275,343.187378 112.209412,344.615417 
	C118.350426,347.255981 123.825775,351.006226 126.482513,358.043030 
	C126.741280,359.040375 127.179367,359.514221 127.617462,359.988098 
	C133.972717,368.808685 133.288498,380.246246 125.440887,391.176392 
z"/>
<path fill="#7EB2E9" opacity="1.000000" stroke="none" 
	d="
M263.428406,106.114120 
	C263.753784,104.936523 264.291748,103.581215 265.081940,102.393753 
	C271.701050,92.447006 271.961090,82.223640 266.376343,71.805260 
	C261.230103,62.204964 253.069092,57.958321 242.249680,56.842804 
	C223.364548,54.895683 204.035278,79.734871 216.974304,100.300858 
	C220.237137,105.486992 225.962845,109.418610 231.208969,112.960785 
	C234.854004,115.421921 237.352417,117.454849 237.086685,122.246429 
	C236.736557,128.559845 237.053421,134.907852 236.981781,141.239838 
	C236.921066,146.607132 235.210556,148.176682 230.017899,149.056595 
	C217.146576,151.237701 204.245712,153.330536 191.494202,156.093399 
	C185.787247,157.329926 180.260971,159.767853 174.926849,162.249802 
	C170.006729,164.539139 173.364883,167.576996 174.960388,170.884766 
	C175.000763,171.668533 175.004883,171.843353 174.764206,172.278870 
	C171.130402,173.755753 167.741409,174.971939 164.023834,176.148834 
	C163.116013,176.610626 162.536758,177.111710 161.671967,177.737091 
	C160.979218,177.935059 160.572021,178.008728 159.856964,178.073807 
	C159.016693,178.560730 158.484314,179.056244 157.644318,179.691742 
	C156.672867,179.948364 156.009018,180.065018 155.001770,180.149170 
	C154.097046,180.686478 153.535751,181.256302 152.717285,182.005402 
	C151.692749,182.482803 150.925400,182.780930 149.779083,183.079407 
	C146.253464,184.942764 143.106812,186.805786 139.650314,188.815613 
	C137.699020,189.715851 136.057571,190.469269 134.061584,191.180405 
	C133.133102,191.728424 132.559174,192.318726 131.810425,192.992371 
	C131.635605,193.075714 131.251907,193.128693 130.912659,193.112823 
	C130.042648,193.691711 129.511902,194.286484 128.796173,194.966156 
	C128.611206,195.051071 128.208481,195.110367 127.844147,195.071655 
	C126.994957,195.035553 126.510086,195.038132 126.025223,195.040710 
	C128.677719,188.312714 128.560318,187.999008 122.250626,185.969330 
	C129.297485,181.360992 136.509537,176.353989 144.212006,172.272491 
	C163.855362,161.863678 184.822845,154.992249 206.566879,150.585648 
	C214.187515,149.041245 221.958649,148.141098 229.701752,147.339981 
	C233.726669,146.923523 235.238876,145.158325 235.150085,141.264587 
	C235.005905,134.941711 234.924881,128.607513 235.149399,122.289902 
	C235.280045,118.613953 233.991928,116.410553 230.591934,114.945908 
	C222.139587,111.304794 215.952515,105.415962 212.867645,96.495239 
	C207.472916,80.894981 214.156296,65.473770 227.600830,58.259739 
	C239.523041,51.862556 250.503220,53.844604 260.553192,61.736294 
	C270.294006,69.385223 273.676239,80.195923 271.465454,92.002968 
	C270.533539,96.979942 266.423370,101.361816 263.428406,106.114120 
z"/>
<path fill="#7BA5E6" opacity="1.000000" stroke="none" 
	d="
M292.930176,166.307251 
	C293.354553,163.566513 292.382843,161.889679 289.927612,160.228134 
	C287.812286,158.796631 286.609497,156.016586 284.995636,153.475220 
	C294.743347,155.885117 305.071350,157.429764 314.134827,161.674500 
	C333.029053,170.523270 351.250671,180.807343 369.763123,190.473969 
	C371.153503,191.199982 372.658997,191.705551 375.363281,192.838013 
	C375.363281,189.258270 375.365662,186.706924 375.362793,184.155563 
	C375.356018,178.168594 375.072906,172.165344 375.427582,166.199951 
	C375.697449,161.662018 373.730896,159.165512 369.973907,157.138824 
	C367.419922,155.761093 365.281281,153.613419 362.892700,151.477234 
	C367.113098,153.510193 371.494049,155.725327 375.609497,158.355759 
	C376.547668,158.955414 376.933899,160.985626 376.952057,162.365585 
	C377.070496,171.362671 376.969788,180.362396 377.041779,189.360443 
	C377.075104,193.521835 375.396027,194.938553 371.464996,193.266327 
	C370.410034,192.817581 369.350464,192.360733 368.350952,191.803619 
	C362.008118,188.268234 355.813171,184.425888 349.266388,181.324554 
	C347.396484,180.438751 344.473145,181.474258 342.134277,182.044540 
	C341.314270,182.244492 340.202667,183.770920 340.306610,184.546646 
	C340.416290,185.365646 341.742615,186.130219 342.667145,186.712799 
	C346.721008,189.267273 350.821808,191.747208 354.600403,194.566330 
	C345.654205,190.292587 337.199341,185.302094 328.326111,181.221115 
	C316.700256,175.874161 304.744202,171.245102 292.930176,166.307251 
z"/>
<path fill="#7AA4E6" opacity="1.000000" stroke="none" 
	d="
M367.392578,312.995422 
	C369.345551,311.397095 371.556763,309.443176 374.137787,308.466522 
	C374.651367,308.272186 377.641388,311.799896 377.673737,313.643097 
	C377.816101,321.754547 377.162720,329.876129 377.064606,337.997253 
	C377.012939,342.276855 375.536377,345.031677 371.453888,346.908630 
	C364.678772,350.023529 358.757141,354.734772 356.101105,361.778503 
	C352.482941,371.373749 352.072693,380.835449 359.281860,389.754761 
	C368.376556,401.006989 379.182831,405.198090 391.470856,401.009338 
	C405.105530,396.361603 414.306793,381.110687 410.723541,367.351593 
	C408.376617,358.339783 402.930542,350.660919 393.879456,347.124664 
	C387.173004,344.504425 386.143555,339.283264 386.122437,333.628784 
	C386.082825,323.016754 386.598297,312.399475 387.059387,301.792023 
	C387.132355,300.113312 387.638062,297.933655 388.775177,296.903442 
	C397.614655,288.895081 406.653015,281.105957 415.658905,273.282471 
	C415.985107,272.999115 416.612762,273.062683 417.446411,272.932220 
	C409.492218,280.516541 401.051910,287.990021 392.988190,295.849792 
	C390.950409,297.836029 389.040314,301.006561 388.916870,303.716949 
	C388.439789,314.189636 388.708710,324.696289 388.700500,335.190308 
	C388.696747,339.957306 390.176392,343.298370 394.965057,345.784515 
	C410.346283,353.769867 415.834473,365.778839 411.673370,382.689697 
	C408.987091,393.606781 400.734161,399.995026 390.502075,403.270966 
	C380.673645,406.417725 371.290466,404.780182 363.860260,397.023560 
	C360.108276,393.106720 355.815125,389.117645 353.726196,384.309845 
	C347.625183,370.267944 353.701660,354.225616 367.638977,347.007019 
	C373.449127,343.997803 375.980103,340.431061 375.448700,333.796387 
	C374.855591,326.391357 375.312683,318.902191 375.312683,310.518433 
	C372.269409,311.514282 370.025055,312.248688 367.392578,312.995422 
z"/>
<path fill="#7BA5E6" opacity="1.000000" stroke="none" 
	d="
M290.362885,348.407593 
	C292.494690,342.454681 296.572449,340.695526 302.647400,342.812134 
	C304.034119,343.295288 305.967285,342.210144 307.808197,341.812378 
	C304.582458,335.718231 302.608154,335.305634 296.933136,336.889709 
	C291.177795,338.496246 285.150970,339.130219 279.361755,339.666870 
	C283.185913,337.941925 286.948181,336.890350 290.586243,335.511017 
	C302.308594,331.066498 314.016388,326.579865 325.665100,321.946716 
	C330.863892,319.878998 335.908356,317.423218 341.022858,315.143555 
	C341.013794,315.556061 341.004730,315.968567 340.630432,316.730042 
	C336.846436,319.374969 333.427612,321.670898 330.008820,323.966858 
	C328.579559,324.306122 327.150299,324.645416 324.987823,325.031433 
	C322.040222,325.966522 319.800964,326.803040 317.653320,327.830902 
	C317.457733,327.924500 317.850128,329.246582 317.969482,329.998199 
	C317.641846,331.422150 317.314240,332.846069 316.684265,334.791504 
	C314.977631,336.709351 314.567413,338.418488 317.176117,337.632324 
	C320.294159,336.692688 323.068634,334.613098 325.991913,333.027283 
	C329.544891,331.440125 333.156067,329.970245 336.638580,328.241211 
	C343.669891,324.750153 350.631256,321.118347 358.117401,317.251831 
	C359.072723,316.647186 359.532135,316.335358 359.991547,316.023499 
	C360.490875,316.026703 360.990234,316.029907 361.864136,316.073212 
	C356.636139,319.548828 351.188568,323.274567 345.401917,326.365448 
	C327.965637,335.679016 309.999695,343.761414 290.362885,348.407593 
z"/>
<path fill="#7BA5E6" opacity="1.000000" stroke="none" 
	d="
M392.688690,207.750580 
	C386.368958,207.555420 386.408752,202.110504 386.217102,198.075836 
	C385.697968,187.146072 385.767609,176.166763 386.149506,165.226166 
	C386.307068,160.713013 388.352600,157.202393 393.391418,155.093307 
	C409.487244,148.356140 415.696564,130.525238 407.763336,114.912132 
	C406.384308,112.198120 404.016266,109.986656 402.133240,107.179474 
	C411.780060,112.301956 414.680389,124.972900 412.135590,136.286057 
	C409.858368,146.409698 402.971863,152.687927 394.187042,157.005814 
	C390.157440,158.986450 388.548615,161.505508 388.595734,165.888824 
	C388.713379,176.834625 388.224487,187.794815 388.637360,198.724350 
	C388.748505,201.667511 391.214661,204.521729 392.688690,207.750580 
z"/>
<path fill="#7BA5E6" opacity="1.000000" stroke="none" 
	d="
M397.086487,102.575668 
	C393.181122,102.209839 388.990448,101.997757 385.136230,100.747978 
	C372.417572,96.623749 353.469116,111.272598 353.709869,126.636627 
	C353.859497,136.185165 357.763062,143.316223 362.877960,150.806564 
	C354.348022,145.864059 349.571838,132.578476 352.247559,121.662811 
	C356.881897,102.756783 379.471252,91.940712 395.440186,100.995865 
	C396.002289,101.314606 396.452759,101.830238 397.086487,102.575668 
z"/>
<path fill="#7BA5E6" opacity="1.000000" stroke="none" 
	d="
M264.427124,435.157410 
	C265.423462,432.236969 266.995880,429.206238 267.939728,425.991058 
	C269.778412,419.727386 269.801514,414.034485 267.479828,407.191895 
	C264.656860,398.872101 258.707428,395.454010 252.729141,391.072388 
	C251.304810,390.028381 250.321503,388.382660 249.015381,386.735229 
	C268.018646,392.261108 278.187653,413.518311 268.055634,431.348267 
	C267.266479,432.737000 265.846100,433.767029 264.427124,435.157410 
z"/>
<path fill="#7BB1E9" opacity="1.000000" stroke="none" 
	d="
M233.761047,386.431641 
	C231.564026,388.247864 228.913635,389.873016 226.480667,391.776184 
	C214.034576,401.511871 209.444489,412.094849 215.047409,427.898285 
	C216.518082,432.046387 220.237350,435.397308 222.969238,439.436646 
	C215.244858,435.818237 212.094254,428.550323 211.393021,420.764984 
	C209.871048,403.867279 217.422974,392.733429 233.761047,386.431641 
z"/>
<path fill="#77B5EB" opacity="1.000000" stroke="none" 
	d="
M78.323196,393.328217 
	C79.931221,393.863373 81.829239,394.414581 83.037903,395.643677 
	C91.022438,403.763092 100.706604,402.846130 110.506729,400.866516 
	C111.741356,400.617096 112.865150,398.757416 113.607574,397.406067 
	C114.501137,395.779541 114.931793,393.898712 115.562866,392.127991 
	C116.632072,393.327362 117.695305,394.532166 118.775406,395.721680 
	C118.997200,395.966003 119.281998,396.153076 119.750122,396.646301 
	C116.514572,398.977692 113.289597,401.672577 109.576614,402.959412 
	C98.793144,406.696716 84.791397,402.286285 78.323196,393.328217 
z"/>
<path fill="#77B5EB" opacity="1.000000" stroke="none" 
	d="
M76.646111,356.054474 
	C75.539604,360.818268 73.570656,365.599243 72.838699,370.562622 
	C72.222275,374.742523 73.043777,379.134460 73.264023,384.251770 
	C75.409271,383.319458 76.246956,382.636414 77.046890,382.678070 
	C78.457024,382.751526 80.597321,382.862366 81.048325,383.701294 
	C81.599602,384.726868 80.953140,386.611603 80.402802,387.951569 
	C79.885719,389.210480 78.819405,390.243805 77.970795,391.757599 
	C72.112854,387.734863 70.763947,381.231689 70.390778,374.617493 
	C70.009201,367.854218 71.927292,361.530487 76.646111,356.054474 
z"/>
<path fill="#7EB2E9" opacity="1.000000" stroke="none" 
	d="
M253.219208,148.485901 
	C248.877060,149.321686 247.001465,146.975723 246.988068,142.724548 
	C246.964539,135.253036 246.624695,127.754379 247.186020,120.325165 
	C247.370514,117.883446 249.477936,115.058212 251.515503,113.407585 
	C254.679016,110.844818 258.535828,109.137901 262.425537,107.019791 
	C260.672668,108.896919 258.907684,111.640053 256.450867,112.585518 
	C250.496552,114.876938 247.808365,118.310074 248.610352,124.945122 
	C249.243530,130.183411 248.944504,135.577591 248.612717,140.874542 
	C248.381317,144.568924 249.617264,146.900192 253.219208,148.485901 
z"/>
<path fill="#7BA5E6" opacity="1.000000" stroke="none" 
	d="
M248.629700,385.635498 
	C247.840668,384.778381 246.548737,383.455292 246.537674,382.121552 
	C246.488586,376.198883 246.918289,370.274109 246.967117,364.348358 
	C247.051285,354.135254 248.182480,352.940460 258.787231,353.063660 
	C257.657135,353.640778 256.086151,354.574707 254.476929,354.646057 
	C250.351227,354.828949 248.504852,356.679474 248.579880,360.847870 
	C248.725739,368.951660 248.681778,377.058838 248.629700,385.635498 
z"/>
<path fill="#7EB2E9" opacity="1.000000" stroke="none" 
	d="
M106.267143,187.821167 
	C106.072151,179.205795 102.605736,170.420624 106.450478,161.452667 
	C107.005806,167.501404 107.484978,173.821854 107.626251,180.149841 
	C107.682236,182.657440 106.987709,185.181793 106.267143,187.821167 
z"/>
<path fill="#7BB1E9" opacity="1.000000" stroke="none" 
	d="
M223.889008,440.426270 
	C227.145996,441.379700 230.435944,442.888062 233.869568,443.917023 
	C242.095245,446.381927 249.902191,444.627106 257.847900,441.095886 
	C254.597382,442.794952 251.098343,445.360443 247.277832,445.997223 
	C238.997589,447.377411 230.756241,446.894989 223.889008,440.426270 
z"/>
<path fill="#7BA5E6" opacity="1.000000" stroke="none" 
	d="
M262.296753,353.213654 
	C265.337677,350.767548 268.023438,347.026581 272.749603,348.057159 
	C274.404480,348.417969 275.927124,349.385284 277.691132,350.360870 
	C272.775726,351.579834 267.679352,352.513611 262.296753,353.213654 
z"/>
<path fill="#7BB1E9" opacity="1.000000" stroke="none" 
	d="
M235.351135,357.459534 
	C235.738113,357.147003 236.270905,357.277191 236.281937,357.442261 
	C236.916183,366.938782 238.687866,376.488464 234.799835,385.960083 
	C234.745392,376.713104 234.999435,367.315857 235.351135,357.459534 
z"/>
<path fill="#7BA5E6" opacity="1.000000" stroke="none" 
	d="
M435.293030,254.730530 
	C436.112457,249.112427 432.716492,245.386307 429.203735,241.681793 
	C427.760406,240.159698 426.443146,238.518036 425.017670,236.615082 
	C429.031311,240.511566 433.303711,244.554825 436.982178,249.080780 
	C437.703674,249.968521 436.127899,252.723389 435.293030,254.730530 
z"/>
<path fill="#7AA4E6" opacity="1.000000" stroke="none" 
	d="
M418.246704,272.770935 
	C420.038696,269.929932 421.953094,266.877686 424.357147,264.278320 
	C427.084839,261.328979 430.250916,258.785004 433.563293,256.025787 
	C428.795197,261.577728 423.690247,267.168701 418.246704,272.770935 
z"/>
<path fill="#7BA5E6" opacity="1.000000" stroke="none" 
	d="
M275.948761,151.284393 
	C275.436066,151.971924 274.578217,152.980927 273.885590,152.878006 
	C267.286377,151.897385 260.715210,150.728333 254.071182,149.207565 
	C256.393799,148.852402 258.781219,148.903091 261.884369,149.299011 
	C264.187927,149.710907 265.775726,149.777573 267.363525,149.844238 
	C267.736725,149.854263 268.109955,149.864273 268.990112,150.230347 
	C270.459900,150.670044 271.422699,150.753662 272.385529,150.837296 
	C273.483765,150.921524 274.582031,151.005753 275.948761,151.284393 
z"/>
<path fill="#7BA5E6" opacity="1.000000" stroke="none" 
	d="
M419.157532,230.553864 
	C413.865265,226.219360 408.466705,221.559998 403.018982,216.581268 
	C405.128693,217.899231 407.397614,219.412155 409.421448,221.202179 
	C412.715637,224.115829 415.849609,227.210632 419.157532,230.553864 
z"/>
<path fill="#7EB2E9" opacity="1.000000" stroke="none" 
	d="
M117.656708,188.209473 
	C115.516685,192.929398 110.406746,194.840988 106.947685,192.015198 
	C110.353561,190.546280 113.831657,189.378799 117.656708,188.209473 
z"/>
<path fill="#7BA5E6" opacity="1.000000" stroke="none" 
	d="
M402.133545,215.565399 
	C399.512909,213.883453 396.782532,211.878143 393.989197,209.547485 
	C396.625427,211.228790 399.324615,213.235413 402.133545,215.565399 
z"/>
<path fill="#7BB1E9" opacity="1.000000" stroke="none" 
	d="
M259.318054,440.796204 
	C260.409363,439.223755 261.831635,437.643707 263.588074,436.029541 
	C262.497833,437.593140 261.073425,439.190857 259.318054,440.796204 
z"/>
<path fill="#7BA5E6" opacity="1.000000" stroke="none" 
	d="
M281.356079,350.301758 
	C282.829742,349.522797 284.623962,348.920837 286.652466,348.537781 
	C285.150024,349.330750 283.413330,349.904724 281.356079,350.301758 
z"/>
<path fill="#7BA5E6" opacity="1.000000" stroke="none" 
	d="
M402.112915,106.514389 
	C400.810425,105.855789 399.439606,104.874985 398.020294,103.569702 
	C399.329407,104.227547 400.687012,105.209869 402.112915,106.514389 
z"/>
<path fill="#7EB2E9" opacity="1.000000" stroke="none" 
	d="
M267.173492,149.556671 
	C265.775726,149.777573 264.187927,149.710907 262.325989,149.376999 
	C263.695740,149.162872 265.339600,149.215988 267.173492,149.556671 
z"/>
<path fill="#7BA5E6" opacity="1.000000" stroke="none" 
	d="
M424.162842,235.572266 
	C423.157990,234.908981 422.062653,233.933182 420.936157,232.608063 
	C421.960815,233.259079 423.016602,234.259415 424.162842,235.572266 
z"/>
<path fill="#7BB1E9" opacity="1.000000" stroke="none" 
	d="
M122.312668,394.920532 
	C122.730247,394.000824 123.472267,393.038147 124.538651,392.036377 
	C124.121056,392.957397 123.379082,393.917480 122.312668,394.920532 
z"/>
<path fill="#7EB2E9" opacity="1.000000" stroke="none" 
	d="
M272.220886,150.574738 
	C271.422699,150.753662 270.459900,150.670044 269.258881,150.314087 
	C270.032532,150.131897 271.044403,150.222031 272.220886,150.574738 
z"/>
<path fill="#77B5EB" opacity="1.000000" stroke="none" 
	d="
M127.674385,359.693237 
	C127.179367,359.514221 126.741280,359.040375 126.443619,358.390381 
	C126.966469,358.608978 127.348885,359.003693 127.674385,359.693237 
z"/>
<path fill="#FDFEFF" opacity="1.000000" stroke="none" 
	d="
M341.185547,315.031311 
	C335.908356,317.423218 330.863892,319.878998 325.665100,321.946716 
	C314.016388,326.579865 302.308594,331.066498 290.586243,335.511017 
	C286.948181,336.890350 283.185913,337.941925 279.184601,339.346924 
	C277.845734,339.685455 276.802734,339.820648 275.023987,340.001709 
	C273.818634,340.146820 273.349030,340.246124 272.509491,340.278931 
	C270.799225,340.572266 269.458893,340.932037 268.118591,341.291809 
	C267.326630,341.296539 266.534668,341.301239 264.977539,341.296021 
	C262.024994,341.805878 259.837585,342.325684 257.650177,342.845520 
	C257.286957,342.824219 256.923767,342.802887 256.124207,342.660065 
	C255.147095,342.747772 254.606308,342.957001 254.065536,343.166260 
	C246.001266,343.120392 237.936981,343.074524 229.193619,342.834686 
	C227.675156,342.657440 226.835785,342.674164 225.996414,342.690887 
	C225.220108,342.518127 224.443802,342.345398 223.055084,341.928406 
	C220.264252,341.715912 218.085861,341.747650 215.907455,341.779388 
	C215.308548,341.720398 214.709656,341.661407 213.585419,341.336273 
	C209.372742,340.282440 205.685425,339.494751 201.998093,338.707092 
	C200.248444,338.201508 198.498795,337.695953 196.362274,337.235931 
	C187.280777,334.072510 178.513580,331.045776 169.906601,327.616821 
	C151.757187,320.386230 134.478836,311.475372 118.471695,300.196716 
	C112.231895,295.800201 105.942673,291.473816 99.330513,287.089600 
	C90.814308,279.537872 82.636803,272.019348 74.475983,264.482758 
	C71.060280,261.328308 67.759285,258.044708 64.259094,254.988235 
	C61.321041,252.422623 61.364658,249.869614 64.038773,247.383224 
	C73.521454,238.566299 83.062874,229.812073 92.634537,221.091705 
	C94.840439,219.082001 97.255043,217.301407 100.094772,215.143982 
	C102.014107,213.548309 103.412285,212.224014 104.810471,210.899719 
	C104.810471,210.899734 104.902832,210.890823 105.262695,210.851624 
	C108.162392,208.918518 110.702225,207.024597 113.242065,205.130676 
	C113.242065,205.130676 113.626709,205.061401 114.141663,204.960022 
	C116.168709,203.606247 117.680809,202.353867 119.472115,201.057526 
	C120.159302,200.655151 120.567284,200.296753 121.289307,199.915939 
	C122.114372,199.303955 122.625404,198.714386 123.096489,198.068848 
	C123.056549,198.012863 123.095200,198.144852 123.450760,198.127563 
	C125.273705,197.110306 126.741089,196.110336 128.208481,195.110367 
	C128.208481,195.110367 128.611206,195.051071 129.112335,194.962769 
	C130.159607,194.292557 130.705765,193.710617 131.251907,193.128693 
	C131.251907,193.128693 131.635605,193.075714 132.128433,192.981918 
	C133.219543,192.332977 133.817841,191.777832 134.416122,191.222687 
	C136.057571,190.469269 137.699020,189.715851 140.003860,188.860687 
	C143.830841,186.865646 146.994446,184.972366 150.158051,183.079071 
	C150.925400,182.780930 151.692749,182.482803 153.032837,182.018341 
	C154.185440,181.295227 154.765320,180.738464 155.345184,180.181671 
	C156.009018,180.065018 156.672867,179.948364 157.945160,179.767731 
	C159.090683,179.163300 159.627762,178.622864 160.164825,178.082397 
	C160.572021,178.008728 160.979218,177.935059 161.977020,177.804779 
	C163.162567,177.228165 163.757492,176.708145 164.352417,176.188126 
	C167.741409,174.971939 171.130402,173.755753 175.161957,172.274185 
	C179.656754,170.423126 183.509003,168.837448 187.361237,167.251770 
	C187.727722,167.217361 188.094208,167.182968 188.942841,167.302383 
	C191.036942,166.694748 192.648880,165.933289 194.260818,165.171829 
	C195.931396,164.832993 197.601990,164.494156 199.799637,164.297028 
	C201.004715,164.046631 201.682724,163.654526 202.360733,163.262421 
	C202.726578,163.230942 203.092407,163.199478 203.967743,163.340851 
	C206.770782,162.760483 209.064362,162.007294 211.357925,161.254089 
	C211.720657,161.235596 212.083374,161.217087 212.922913,161.363861 
	C214.240753,161.259293 215.081802,160.989456 215.922852,160.719635 
	C217.977158,160.667572 220.031479,160.615509 222.882782,160.612244 
	C225.840973,160.143326 228.002197,159.625626 230.163406,159.107941 
	C230.870514,159.116379 231.577621,159.124817 232.954071,159.352478 
	C239.748764,159.381622 245.874115,159.191544 251.999451,159.001480 
	C252.402802,159.048340 252.806137,159.095200 253.616791,159.423004 
	C255.006683,159.765076 255.989288,159.826202 256.971893,159.887314 
	C258.045349,159.958099 259.118805,160.028885 260.913452,160.133301 
	C262.293335,160.197479 262.952026,160.228058 263.768005,160.525055 
	C264.944946,160.845917 265.964539,160.900360 267.306091,161.029846 
	C268.285919,161.160828 268.943787,161.216751 269.734741,161.514008 
	C270.566132,161.798584 271.264435,161.841827 272.348877,161.961395 
	C274.043274,162.096909 275.351501,162.156082 276.807892,162.493988 
	C277.663116,162.967667 278.370239,163.162598 279.427490,163.508636 
	C280.532898,163.724869 281.288086,163.790009 282.208588,164.114548 
	C283.582581,164.561768 284.791290,164.749588 286.000000,164.937393 
	C288.048370,165.366928 290.096710,165.796463 292.537628,166.266632 
	C304.744202,171.245102 316.700256,175.874161 328.326111,181.221115 
	C337.199341,185.302094 345.654205,190.292587 354.653381,194.907288 
	C355.011566,194.936111 355.275787,195.143280 355.592224,195.471680 
	C360.957794,199.146957 366.006866,202.493835 371.055969,205.840698 
	C371.448456,206.231003 371.840912,206.621323 372.637939,207.367249 
	C379.372223,212.387375 385.701904,217.051910 392.031586,221.716446 
	C392.031586,221.716446 392.382324,221.977036 392.694275,222.347412 
	C394.020020,223.433350 395.033813,224.148895 396.047577,224.864441 
	C397.086670,225.858215 398.125732,226.851974 399.546265,228.312668 
	C404.969147,233.469681 410.010620,238.159760 415.052124,242.849854 
	C415.420044,243.240784 415.787964,243.631729 416.535400,244.401062 
	C418.229004,245.956467 419.543091,247.133484 420.857208,248.310501 
	C420.958557,248.690445 421.059875,249.070404 421.191223,250.048889 
	C421.311798,251.109238 421.402374,251.571030 421.492920,252.032822 
	C421.328186,252.420364 421.163452,252.807892 420.631348,253.601013 
	C417.774994,256.640594 415.285950,259.274628 412.796906,261.908661 
	C410.966736,263.439423 409.136566,264.970215 406.833374,266.832031 
	C403.820068,269.735138 401.279785,272.307190 398.739502,274.879211 
	C397.592346,275.772064 396.445190,276.664886 394.845337,277.868164 
	C392.993011,279.463135 391.593414,280.747620 390.193787,282.032135 
	C389.924530,282.274536 389.655304,282.516937 388.889313,282.964905 
	C387.856018,283.747559 387.319458,284.324677 386.782898,284.901794 
	C386.290588,285.154053 385.798309,285.406342 384.835022,285.927002 
	C380.516052,289.102295 376.668060,292.009186 372.820099,294.916077 
	C372.820099,294.916077 372.387390,295.011597 371.902222,295.126099 
	C370.876831,295.796204 370.336609,296.351837 369.796387,296.907440 
	C369.796387,296.907440 369.379303,296.982391 368.873962,297.086060 
	C367.481079,298.081604 366.593475,298.973450 365.705902,299.865326 
	C365.705902,299.865326 365.326508,299.942871 364.862610,300.065979 
	C363.856537,300.758118 363.314392,301.327087 362.772217,301.896088 
	C361.701569,302.572418 360.630920,303.248779 358.988220,304.079742 
	C357.870117,304.788757 357.324066,305.343140 356.778015,305.897522 
	C356.778015,305.897522 356.365295,305.981232 355.889160,306.103210 
	C354.879150,306.787720 354.345215,307.350189 353.811310,307.912689 
	C353.060516,308.250244 352.309723,308.587769 350.959412,309.077026 
	C349.174469,310.121277 347.989044,311.013824 346.803619,311.906342 
	C346.036163,312.236298 345.268707,312.566254 343.960266,313.079498 
	C342.860016,313.801727 342.300781,314.340668 341.741547,314.879608 
	C341.741547,314.879608 341.348236,314.919098 341.185547,315.031311 
M303.924286,244.610764 
	C302.387390,235.923203 301.326660,227.031967 292.814606,221.693756 
	C286.351898,217.640747 280.994415,211.132751 272.011719,212.758194 
	C271.366058,212.875031 270.144653,211.115555 269.556000,210.030441 
	C265.671326,202.869644 261.912476,195.640747 258.062622,188.460846 
	C253.693451,180.312317 249.272049,172.191803 244.732086,163.797928 
	C242.562668,165.047897 240.495850,165.582230 239.514679,166.915497 
	C234.778915,173.350662 230.208542,179.919586 225.897873,186.645111 
	C225.058777,187.954254 225.081924,190.368134 225.645966,191.934448 
	C229.176376,201.738174 232.811218,211.512177 236.753952,221.156021 
	C238.554703,225.560623 241.136169,229.646057 243.596756,234.319168 
	C238.083618,236.515854 236.356888,240.833984 236.160202,245.928741 
	C235.993378,250.250183 235.700867,254.617615 236.150299,258.892548 
	C236.411499,261.377106 237.479340,264.204163 239.116974,266.049133 
	C252.213486,280.803772 268.358643,288.033936 288.349060,285.064941 
	C289.435242,284.903625 290.640442,284.443817 291.454132,283.736359 
	C295.089661,280.575378 298.626617,277.299194 302.153717,274.015839 
	C305.270752,271.114227 306.679993,267.614319 306.086792,263.266266 
	C305.279907,257.351715 304.690094,251.407532 303.924286,244.610764 
M228.356842,265.112427 
	C223.127121,262.880249 217.458725,258.111694 212.755753,258.925079 
	C201.758316,260.827148 191.119354,265.130524 180.581772,269.113647 
	C178.179108,270.021851 175.703690,273.327362 175.105576,275.949982 
	C173.044952,284.985474 171.615952,294.182281 170.378143,303.375763 
	C170.077576,305.608246 170.695160,308.747833 172.143555,310.304230 
	C181.028015,319.851196 191.013535,328.178070 202.908524,333.707489 
	C205.304855,334.821411 209.307037,334.448425 211.710251,333.159790 
	C216.345596,330.674286 220.526138,327.234680 224.592194,323.828857 
	C227.532043,321.366394 230.411972,319.954651 234.422562,320.027802 
	C246.567642,320.249329 258.720428,320.043335 270.870209,320.014648 
	C277.763489,319.998383 279.623230,316.924164 276.781189,310.336395 
	C276.322662,309.273590 275.749939,307.965759 275.984741,306.944794 
	C277.821991,298.956238 272.639160,289.926331 264.714050,288.216370 
	C259.698883,287.134308 254.509674,286.874359 249.471176,285.878296 
	C247.223297,285.433929 243.774918,284.576874 243.236099,283.064606 
	C240.505707,275.401184 234.998032,270.315369 228.356842,265.112427 
z"/>
<path fill="#F9FAFD" opacity="1.000000" stroke="none" 
	d="
M375.226624,145.939026 
	C373.751312,145.098022 372.546661,144.503571 371.491638,143.710190 
	C365.282318,139.040909 361.104309,131.552994 364.904053,122.282654 
	C368.282074,114.041206 377.066437,108.826317 385.097382,110.352730 
	C393.680054,111.984001 400.891235,120.171440 400.989075,128.395844 
	C401.140503,141.124863 387.546417,150.588303 375.226624,145.939026 
z"/>
<path fill="#F9FAFD" opacity="1.000000" stroke="none" 
	d="
M399.914185,368.376495 
	C402.689758,378.322083 397.766479,387.651215 388.277893,391.005524 
	C379.042206,394.270386 369.050720,389.904541 365.105011,380.880005 
	C361.334656,372.256531 365.684998,361.963470 373.854431,356.983337 
	C381.651398,352.230286 396.730591,357.248810 399.914185,368.376495 
z"/>
<path fill="#7BA5E6" opacity="1.000000" stroke="none" 
	d="
M391.979218,221.395416 
	C385.701904,217.051910 379.372223,212.387375 372.925720,207.405273 
	C379.181519,211.749924 385.554199,216.412155 391.979218,221.395416 
z"/>
<path fill="#7BA5E6" opacity="1.000000" stroke="none" 
	d="
M415.002075,242.518311 
	C410.010620,238.159760 404.969147,233.469681 399.829193,228.451691 
	C402.272339,230.034134 404.998932,231.746735 407.307648,233.906113 
	C410.043793,236.465286 412.419891,239.409454 415.002075,242.518311 
z"/>
<path fill="#7BA5E6" opacity="1.000000" stroke="none" 
	d="
M371.002838,205.506668 
	C366.006866,202.493835 360.957794,199.146957 355.759308,195.488220 
	C360.723206,198.508453 365.836456,201.840546 371.002838,205.506668 
z"/>
<path fill="#7AA4E6" opacity="1.000000" stroke="none" 
	d="
M330.217468,324.236969 
	C333.427612,321.670898 336.846436,319.374969 340.619202,317.039307 
	C339.003967,321.674744 335.551208,324.265564 330.217468,324.236969 
z"/>
<path fill="#7BA5E6" opacity="1.000000" stroke="none" 
	d="
M373.201782,294.945740 
	C376.668060,292.009186 380.516052,289.102295 384.710815,286.181244 
	C381.232941,289.103180 377.408234,292.039276 373.201782,294.945740 
z"/>
<path fill="#7AA4E6" opacity="1.000000" stroke="none" 
	d="
M325.781555,332.757263 
	C323.068634,334.613098 320.294159,336.692688 317.176117,337.632324 
	C314.567413,338.418488 314.977631,336.709351 316.673126,335.161530 
	C319.833252,334.169128 322.702209,333.328186 325.781555,332.757263 
z"/>
<path fill="#7AA4E6" opacity="1.000000" stroke="none" 
	d="
M318.342804,329.991943 
	C317.850128,329.246582 317.457733,327.924500 317.653320,327.830902 
	C319.800964,326.803040 322.040222,325.966522 324.616302,325.039368 
	C322.890717,326.662292 320.803436,328.323975 318.342804,329.991943 
z"/>
<path fill="#7BA5E6" opacity="1.000000" stroke="none" 
	d="
M413.159424,261.915283 
	C415.285950,259.274628 417.774994,256.640594 420.591949,253.915451 
	C418.453918,256.523529 415.987946,259.222717 413.159424,261.915283 
z"/>
<path fill="#7BA5E6" opacity="1.000000" stroke="none" 
	d="
M399.105957,274.895691 
	C401.279785,272.307190 403.820068,269.735138 406.698059,267.132538 
	C404.514679,269.705414 401.993561,272.308807 399.105957,274.895691 
z"/>
<path fill="#7BA5E6" opacity="1.000000" stroke="none" 
	d="
M390.538879,282.023956 
	C391.593414,280.747620 392.993011,279.463135 394.719666,278.154938 
	C393.659149,279.426117 392.271576,280.720947 390.538879,282.023956 
z"/>
<path fill="#7BA5E6" opacity="1.000000" stroke="none" 
	d="
M420.879761,247.932358 
	C419.543091,247.133484 418.229004,245.956467 416.809509,244.458221 
	C418.103485,245.276047 419.502899,246.415131 420.879761,247.932358 
z"/>
<path fill="#7BA5E6" opacity="1.000000" stroke="none" 
	d="
M347.175201,311.939697 
	C347.989044,311.013824 349.174469,310.121277 350.694214,309.236298 
	C349.867920,310.153564 348.707367,311.063324 347.175201,311.939697 
z"/>
<path fill="#7BA5E6" opacity="1.000000" stroke="none" 
	d="
M366.062347,299.890106 
	C366.593475,298.973450 367.481079,298.081604 368.697174,297.202820 
	C368.156738,298.115601 367.287750,299.015228 366.062347,299.890106 
z"/>
<path fill="#7BA5E6" opacity="1.000000" stroke="none" 
	d="
M395.996643,224.526337 
	C395.033813,224.148895 394.020020,223.433350 392.905457,222.403412 
	C393.851685,222.788773 394.898682,223.488495 395.996643,224.526337 
z"/>
<path fill="#7BA5E6" opacity="1.000000" stroke="none" 
	d="
M357.102509,305.911804 
	C357.324066,305.343140 357.870117,304.788757 358.721985,304.260468 
	C358.494171,304.833069 357.960602,305.379608 357.102509,305.911804 
z"/>
<path fill="#7BA5E6" opacity="1.000000" stroke="none" 
	d="
M421.729431,251.964371 
	C421.402374,251.571030 421.311798,251.109238 421.336548,250.307236 
	C421.623199,250.610001 421.794556,251.252960 421.729431,251.964371 
z"/>
<path fill="#7BA5E6" opacity="1.000000" stroke="none" 
	d="
M387.115723,284.908691 
	C387.319458,284.324677 387.856018,283.747559 388.705383,283.165100 
	C388.494995,283.745026 387.971771,284.330292 387.115723,284.908691 
z"/>
<path fill="#7BA5E6" opacity="1.000000" stroke="none" 
	d="
M370.120789,296.917603 
	C370.336609,296.351837 370.876831,295.796204 371.721741,295.254639 
	C371.499359,295.821686 370.972290,296.374695 370.120789,296.917603 
z"/>
<path fill="#7BA5E6" opacity="1.000000" stroke="none" 
	d="
M363.104614,301.906433 
	C363.314392,301.327087 363.856537,300.758118 364.709106,300.183960 
	C364.492004,300.758148 363.964539,301.337433 363.104614,301.906433 
z"/>
<path fill="#7AA4E6" opacity="1.000000" stroke="none" 
	d="
M359.825256,315.792511 
	C359.532135,316.335358 359.072723,316.647186 358.322327,316.979919 
	C358.573914,316.521057 359.116455,316.041290 359.825256,315.792511 
z"/>
<path fill="#7BA5E6" opacity="1.000000" stroke="none" 
	d="
M342.065796,314.900574 
	C342.300781,314.340668 342.860016,313.801727 343.724976,313.296875 
	C343.483826,313.861145 342.936920,314.391327 342.065796,314.900574 
z"/>
<path fill="#7BA5E6" opacity="1.000000" stroke="none" 
	d="
M354.136658,307.919891 
	C354.345215,307.350189 354.879150,306.787720 355.718964,306.227173 
	C355.503937,306.795135 354.983002,307.361115 354.136658,307.919891 
z"/>
<path fill="#F9FBFD" opacity="1.000000" stroke="none" 
	d="
M86.950653,117.018005 
	C92.901955,108.926331 105.833824,108.315308 112.589798,114.187157 
	C120.020027,120.645012 121.554245,132.768173 115.768143,139.850037 
	C108.699898,148.501175 98.133400,150.117737 90.246674,143.754547 
	C81.560707,136.746536 80.128586,125.879105 86.950653,117.018005 
z"/>
<path fill="#7EB2E9" opacity="1.000000" stroke="none" 
	d="
M120.975258,199.938354 
	C120.567284,200.296753 120.159302,200.655151 119.109604,201.022110 
	C117.985352,201.032318 117.502815,201.033966 117.020294,201.035614 
	C119.108406,199.364594 121.196526,197.693573 123.535782,196.288574 
	C123.556343,197.084702 123.325775,197.614777 123.095200,198.144852 
	C123.095200,198.144852 123.056549,198.012863 122.764244,198.059341 
	C121.973045,198.716660 121.474152,199.327515 120.975258,199.938354 
z"/>
<path fill="#91BDEB" opacity="1.000000" stroke="none" 
	d="
M112.867691,205.110657 
	C110.702225,207.024597 108.162392,208.918518 105.267212,210.805450 
	C107.439026,208.895859 109.966171,206.993240 112.867691,205.110657 
z"/>
<path fill="#91BDEB" opacity="1.000000" stroke="none" 
	d="
M116.827530,201.293213 
	C117.502815,201.033966 117.985352,201.032318 118.830399,201.066071 
	C117.680809,202.353867 116.168709,203.606247 114.314468,204.868790 
	C114.859810,203.769577 115.747284,202.660202 116.827530,201.293213 
z"/>
<path fill="#91BDEB" opacity="1.000000" stroke="none" 
	d="
M104.465530,210.930496 
	C103.412285,212.224014 102.014107,213.548309 100.280792,214.869385 
	C101.337303,213.564545 102.728951,212.262909 104.465530,210.930496 
z"/>
<path fill="#91BDEB" opacity="1.000000" stroke="none" 
	d="
M123.450760,198.127563 
	C123.325775,197.614777 123.556343,197.084702 123.908440,196.290726 
	C124.579117,195.855392 125.128265,195.683960 125.851318,195.276611 
	C126.510086,195.038132 126.994957,195.035553 127.844147,195.071655 
	C126.741089,196.110336 125.273705,197.110306 123.450760,198.127563 
z"/>
<path fill="#F9FBFD" opacity="1.000000" stroke="none" 
	d="
M233.923080,433.431885 
	C223.235107,426.184723 220.856445,419.445679 224.906616,408.689911 
	C227.528458,401.727295 237.632874,396.724884 244.973923,398.433960 
	C257.498474,401.349792 261.901917,412.515900 259.512634,421.184967 
	C256.670654,431.496582 244.827866,438.420166 233.923080,433.431885 
z"/>
<path fill="#7BB1E9" opacity="1.000000" stroke="none" 
	d="
M202.131439,338.983582 
	C205.685425,339.494751 209.372742,340.282440 213.286331,341.375977 
	C208.907578,344.849213 206.031052,339.988464 202.131439,338.983582 
z"/>
<path fill="#7BB1E9" opacity="1.000000" stroke="none" 
	d="
M258.093414,342.897614 
	C259.837585,342.325684 262.024994,341.805878 264.605896,341.442017 
	C262.845123,342.048523 260.690887,342.499115 258.093414,342.897614 
z"/>
<path fill="#7BB1E9" opacity="1.000000" stroke="none" 
	d="
M216.142151,342.093445 
	C218.085861,341.747650 220.264252,341.715912 222.655731,341.988159 
	C220.704819,342.330597 218.540833,342.369049 216.142151,342.093445 
z"/>
<path fill="#7BB1E9" opacity="1.000000" stroke="none" 
	d="
M268.340393,341.500854 
	C269.458893,340.932037 270.799225,340.572266 272.339813,340.461243 
	C272.026520,341.140381 271.512939,341.570801 270.999359,342.001221 
	C270.186981,341.904144 269.374603,341.807037 268.340393,341.500854 
z"/>
<path fill="#7BA5E6" opacity="1.000000" stroke="none" 
	d="
M271.367126,342.000061 
	C271.512939,341.570801 272.026520,341.140381 272.709778,340.527710 
	C273.349030,340.246124 273.818634,340.146820 274.644562,340.111084 
	C273.912262,340.782745 272.823608,341.390839 271.367126,342.000061 
z"/>
<path fill="#7BB1E9" opacity="1.000000" stroke="none" 
	d="
M226.093201,342.933502 
	C226.835785,342.674164 227.675156,342.657440 228.725220,342.901367 
	C228.020615,343.166748 227.105301,343.171448 226.093201,342.933502 
z"/>
<path fill="#7BB1E9" opacity="1.000000" stroke="none" 
	d="
M254.225433,343.371338 
	C254.606308,342.957001 255.147095,342.747772 255.858154,342.727539 
	C255.480713,343.136505 254.933029,343.356476 254.225433,343.371338 
z"/>
<path fill="#F8FBFD" opacity="1.000000" stroke="none" 
	d="
M253.724533,99.793045 
	C246.393204,105.526787 238.885651,106.030136 231.835388,101.500786 
	C225.054703,97.144615 221.649338,89.224289 223.334854,81.729836 
	C224.930008,74.637131 232.479233,67.904114 239.976822,67.096527 
	C247.639725,66.271133 253.108978,70.176857 257.221710,76.027748 
	C261.187683,81.669823 261.105225,87.908241 258.144348,93.990211 
	C257.151123,96.030380 255.392181,97.697754 253.724533,99.793045 
z"/>
<path fill="#7BA5E6" opacity="1.000000" stroke="none" 
	d="
M269.601654,161.272675 
	C268.943787,161.216751 268.285919,161.160828 267.066833,160.756165 
	C265.540649,160.357849 264.575684,160.308243 263.610687,160.258636 
	C262.952026,160.228058 262.293335,160.197479 261.314880,160.083832 
	C261.786011,159.030090 262.686768,157.149780 263.350769,157.229980 
	C269.738312,158.001404 275.953247,160.313919 282.630981,158.425186 
	C283.370636,158.215973 285.178864,161.784622 285.926636,163.774338 
	C284.255615,163.916702 283.149475,163.885910 282.043304,163.855133 
	C281.288086,163.790009 280.532898,163.724869 279.307556,163.246841 
	C278.111511,162.627716 277.385651,162.421494 276.659760,162.215271 
	C275.351501,162.156082 274.043274,162.096909 272.135162,161.712753 
	C270.890747,161.349411 270.246216,161.311050 269.601654,161.272675 
z"/>
<path fill="#91BDEB" opacity="1.000000" stroke="none" 
	d="
M251.709259,158.700836 
	C245.874115,159.191544 239.748764,159.381622 233.305634,159.311340 
	C239.131561,158.834045 245.275314,158.617126 251.709259,158.700836 
z"/>
<path fill="#91BDEB" opacity="1.000000" stroke="none" 
	d="
M186.961792,167.193314 
	C183.509003,168.837448 179.656754,170.423126 175.406769,172.013489 
	C175.004883,171.843353 175.000763,171.668533 174.999649,171.231049 
	C178.855896,169.690552 182.709106,168.412704 186.961792,167.193314 
z"/>
<path fill="#91BDEB" opacity="1.000000" stroke="none" 
	d="
M210.937195,161.169434 
	C209.064362,162.007294 206.770782,162.760483 204.235168,163.273026 
	C206.167572,162.383179 208.342010,161.733978 210.937195,161.169434 
z"/>
<path fill="#91BDEB" opacity="1.000000" stroke="none" 
	d="
M229.738617,159.052155 
	C228.002197,159.625626 225.840973,160.143326 223.292450,160.456543 
	C225.041351,159.833511 227.177597,159.414948 229.738617,159.052155 
z"/>
<path fill="#91BDEB" opacity="1.000000" stroke="none" 
	d="
M193.888336,165.129883 
	C192.648880,165.933289 191.036942,166.694748 189.210907,167.234238 
	C190.503143,166.370834 192.009491,165.729385 193.888336,165.129883 
z"/>
<path fill="#91BDEB" opacity="1.000000" stroke="none" 
	d="
M282.208588,164.114548 
	C283.149475,163.885910 284.255615,163.916702 285.677246,163.976257 
	C285.992737,164.005035 286.012573,164.471329 286.006287,164.704361 
	C284.791290,164.749588 283.582581,164.561768 282.208588,164.114548 
z"/>
<path fill="#91BDEB" opacity="1.000000" stroke="none" 
	d="
M256.750671,159.625916 
	C255.989288,159.826202 255.006683,159.765076 253.921387,159.413025 
	C254.722305,159.202896 255.625885,159.283707 256.750671,159.625916 
z"/>
<path fill="#91BDEB" opacity="1.000000" stroke="none" 
	d="
M215.715805,160.508942 
	C215.081802,160.989456 214.240753,161.259293 213.190353,161.309753 
	C213.823593,160.826355 214.666168,160.562317 215.715805,160.508942 
z"/>
<path fill="#91BDEB" opacity="1.000000" stroke="none" 
	d="
M202.022141,163.187286 
	C201.682724,163.654526 201.004715,164.046631 200.160553,164.229248 
	C200.557449,163.717224 201.120499,163.414703 202.022141,163.187286 
z"/>
<path fill="#F8FBFD" opacity="1.000000" stroke="none" 
	d="
M115.727013,361.858185 
	C116.818321,363.539154 117.594376,365.090118 118.631004,366.832886 
	C119.234413,369.745117 119.577248,372.465485 119.747147,375.775848 
	C119.543510,376.910278 119.512810,377.454712 119.482101,377.999176 
	C118.936203,379.609131 118.390297,381.219086 117.552193,383.348114 
	C116.838844,384.577820 116.417694,385.288452 115.996529,385.999084 
	C113.539864,387.669342 111.083214,389.339600 108.030334,391.099854 
	C106.957375,391.463257 106.480644,391.736633 106.003922,392.010010 
	C102.785309,391.924744 99.566696,391.839447 95.770660,391.497375 
	C94.463715,390.937653 93.734200,390.634735 93.004700,390.331848 
	C92.629021,390.194733 92.253342,390.057617 91.463791,389.606018 
	C90.374535,388.837952 89.699150,388.384399 89.023773,387.930847 
	C88.214485,387.024933 87.405190,386.119019 86.264984,384.761108 
	C85.011108,383.051636 84.088158,381.794128 83.165222,380.536652 
	C83.850533,375.062195 83.338631,369.058594 85.474884,364.225464 
	C89.687279,354.695251 105.485748,350.892975 115.727013,361.858185 
z"/>
<path fill="#7BB1E9" opacity="1.000000" stroke="none" 
	d="
M83.135796,380.925507 
	C84.088158,381.794128 85.011108,383.051636 85.977264,384.651123 
	C85.049110,383.766876 84.077744,382.540619 83.135796,380.925507 
z"/>
<path fill="#7BB1E9" opacity="1.000000" stroke="none" 
	d="
M119.724991,377.940491 
	C119.512810,377.454712 119.543510,376.910278 119.802963,376.189514 
	C120.010429,376.636078 119.989159,377.258911 119.724991,377.940491 
z"/>
<path fill="#7BB1E9" opacity="1.000000" stroke="none" 
	d="
M116.348854,385.942902 
	C116.417694,385.288452 116.838844,384.577820 117.550926,383.712585 
	C117.461632,384.334259 117.081398,385.110474 116.348854,385.942902 
z"/>
<path fill="#7BB1E9" opacity="1.000000" stroke="none" 
	d="
M106.157761,392.230042 
	C106.480644,391.736633 106.957375,391.463257 107.717651,391.260437 
	C107.437988,391.704041 106.874786,392.077057 106.157761,392.230042 
z"/>
<path fill="#7BB1E9" opacity="1.000000" stroke="none" 
	d="
M89.061165,388.279297 
	C89.699150,388.384399 90.374535,388.837952 91.162827,389.593750 
	C90.550003,389.473206 89.824280,389.050446 89.061165,388.279297 
z"/>
<path fill="#7BB1E9" opacity="1.000000" stroke="none" 
	d="
M93.088394,390.647888 
	C93.734200,390.634735 94.463715,390.937653 95.343979,391.533447 
	C94.720520,391.538879 93.946312,391.251404 93.088394,390.647888 
z"/>
<path fill="#91BDEB" opacity="1.000000" stroke="none" 
	d="
M149.779083,183.079407 
	C146.994446,184.972366 143.830841,186.865646 140.313705,188.713867 
	C143.106812,186.805786 146.253464,184.942764 149.779083,183.079407 
z"/>
<path fill="#91BDEB" opacity="1.000000" stroke="none" 
	d="
M134.061584,191.180405 
	C133.817841,191.777832 133.219543,192.332977 132.303253,192.898575 
	C132.559174,192.318726 133.133102,191.728424 134.061584,191.180405 
z"/>
<path fill="#91BDEB" opacity="1.000000" stroke="none" 
	d="
M155.001770,180.149170 
	C154.765320,180.738464 154.185440,181.295227 153.290009,181.839066 
	C153.535751,181.256302 154.097046,180.686478 155.001770,180.149170 
z"/>
<path fill="#91BDEB" opacity="1.000000" stroke="none" 
	d="
M159.856964,178.073822 
	C159.627762,178.622864 159.090683,179.163300 158.252777,179.627747 
	C158.484314,179.056244 159.016693,178.560730 159.856964,178.073822 
z"/>
<path fill="#91BDEB" opacity="1.000000" stroke="none" 
	d="
M164.023834,176.148834 
	C163.757492,176.708145 163.162567,177.228165 162.262573,177.680496 
	C162.536758,177.111710 163.116013,176.610626 164.023834,176.148834 
z"/>
<path fill="#91BDEB" opacity="1.000000" stroke="none" 
	d="
M130.912659,193.112823 
	C130.705765,193.710617 130.159607,194.292557 129.297302,194.877869 
	C129.511902,194.286484 130.042648,193.691711 130.912659,193.112823 
z"/>
<path fill="#75B3EA" opacity="1.000000" stroke="none" 
	d="
M303.965759,245.043411 
	C304.690094,251.407532 305.279907,257.351715 306.086792,263.266266 
	C306.679993,267.614319 305.270752,271.114227 302.153717,274.015839 
	C298.626617,277.299194 295.089661,280.575378 291.454132,283.736359 
	C290.640442,284.443817 289.435242,284.903625 288.349060,285.064941 
	C268.358643,288.033936 252.213486,280.803772 239.116974,266.049133 
	C237.479340,264.204163 236.411499,261.377106 236.150299,258.892548 
	C235.700867,254.617615 235.993378,250.250183 236.160202,245.928741 
	C236.356888,240.833984 238.083618,236.515854 243.596756,234.319168 
	C241.136169,229.646057 238.554703,225.560623 236.753952,221.156021 
	C232.811218,211.512177 229.176376,201.738174 225.645966,191.934448 
	C225.081924,190.368134 225.058777,187.954254 225.897873,186.645111 
	C230.208542,179.919586 234.778915,173.350662 239.514679,166.915497 
	C240.495850,165.582230 242.562668,165.047897 244.732086,163.797928 
	C249.272049,172.191803 253.693451,180.312317 258.062622,188.460846 
	C261.912476,195.640747 265.671326,202.869644 269.556000,210.030441 
	C270.144653,211.115555 271.366058,212.875031 272.011719,212.758194 
	C280.994415,211.132751 286.351898,217.640747 292.814606,221.693756 
	C301.326660,227.031967 302.387390,235.923203 303.965759,245.043411 
M275.799835,248.062332 
	C276.046875,244.077316 276.256378,240.089493 276.552795,236.108154 
	C276.790771,232.912216 278.491394,232.208496 280.820557,233.271179 
	C281.424377,236.021332 282.626770,238.497803 282.346130,240.792908 
	C281.564514,247.184036 280.264221,253.519440 278.988708,259.840515 
	C277.425964,267.584930 269.208984,272.948944 262.004181,269.743256 
	C257.859955,267.899353 255.601074,269.599243 252.277267,270.358551 
	C259.595551,279.376984 269.058014,279.898590 279.171417,280.481384 
	C289.341461,281.067474 294.652252,275.174500 300.074158,268.678162 
	C301.079071,267.474121 301.293884,265.199249 301.120514,263.495209 
	C300.415039,256.561707 299.017822,249.681335 298.611359,242.738297 
	C297.826508,229.331329 288.369141,223.373383 278.134979,218.079926 
	C273.630188,215.749893 267.236969,219.848343 267.010345,224.810074 
	C266.722107,231.120956 266.292633,237.428482 266.157104,243.742447 
	C266.007874,250.696365 266.123108,257.655975 266.123108,264.815216 
	C270.592468,265.284393 273.406494,263.815491 274.106018,259.307587 
	C274.640747,255.861786 275.113708,252.406357 275.799835,248.062332 
M245.670013,175.857025 
	C244.690430,174.210129 243.710831,172.563248 242.731232,170.916351 
	C242.104691,170.857391 241.478134,170.798431 240.851593,170.739471 
	C239.955704,173.831467 237.495621,177.537491 238.427704,179.911880 
	C243.107315,191.832458 248.673813,203.404907 253.386627,213.893188 
	C258.124298,213.018188 261.406830,212.411942 264.926758,211.761856 
	C258.706085,200.143311 252.372818,188.314468 245.670013,175.857025 
M252.087158,223.500412 
	C251.503967,221.628250 251.127457,219.659302 250.303696,217.899765 
	C245.296539,207.204468 240.192917,196.554276 235.103195,185.897781 
	C234.656128,184.961746 234.077499,184.088562 233.559982,183.186188 
	C233.082062,183.181992 232.604141,183.177780 232.126221,183.173584 
	C231.499023,186.092224 229.856125,189.222855 230.413742,191.894180 
	C233.440674,206.395401 240.862152,219.008987 249.462402,231.836899 
	C250.312057,229.329727 251.161728,226.822556 252.087158,223.500412 
M250.660202,236.141678 
	C241.667938,239.024902 239.743637,245.737915 240.898636,254.131058 
	C240.966141,254.621628 240.904648,255.129578 240.908203,255.629410 
	C240.954025,262.079010 242.668015,264.581177 249.303299,267.346893 
	C247.758209,259.557770 250.516876,253.210831 254.799454,247.159698 
	C257.785522,242.940521 257.326508,238.441208 254.191513,233.928345 
	C253.173401,234.570709 252.226929,235.167877 250.660202,236.141678 
M260.932129,234.748428 
	C261.527008,230.134537 262.229797,225.530304 262.644409,220.900284 
	C262.754547,219.670410 261.979706,218.361267 261.611176,217.088531 
	C260.477020,218.021805 258.932281,218.731018 258.279694,219.927048 
	C255.435089,225.140488 257.481598,229.849594 260.932129,234.748428 
M258.246033,250.736008 
	C256.220093,254.864227 252.196045,258.444427 254.599899,263.824036 
	C260.195648,262.064667 262.600464,255.123138 260.172729,247.459686 
	C259.599518,248.430878 259.107697,249.264175 258.246033,250.736008 
M261.466309,245.592758 
	C261.466309,245.592758 261.428406,245.500473 261.466309,245.592758 
z"/>
<path fill="#75B3EA" opacity="1.000000" stroke="none" 
	d="
M228.627213,265.348267 
	C234.998032,270.315369 240.505707,275.401184 243.236099,283.064606 
	C243.774918,284.576874 247.223297,285.433929 249.471176,285.878296 
	C254.509674,286.874359 259.698883,287.134308 264.714050,288.216370 
	C272.639160,289.926331 277.821991,298.956238 275.984741,306.944794 
	C275.749939,307.965759 276.322662,309.273590 276.781189,310.336395 
	C279.623230,316.924164 277.763489,319.998383 270.870209,320.014648 
	C258.720428,320.043335 246.567642,320.249329 234.422562,320.027802 
	C230.411972,319.954651 227.532043,321.366394 224.592194,323.828857 
	C220.526138,327.234680 216.345596,330.674286 211.710251,333.159790 
	C209.307037,334.448425 205.304855,334.821411 202.908524,333.707489 
	C191.013535,328.178070 181.028015,319.851196 172.143555,310.304230 
	C170.695160,308.747833 170.077576,305.608246 170.378143,303.375763 
	C171.615952,294.182281 173.044952,284.985474 175.105576,275.949982 
	C175.703690,273.327362 178.179108,270.021851 180.581772,269.113647 
	C191.119354,265.130524 201.758316,260.827148 212.755753,258.925079 
	C217.458725,258.111694 223.127121,262.880249 228.627213,265.348267 
M260.140930,292.074219 
	C242.987045,290.265961 225.833160,288.457703 208.481552,286.628632 
	C207.226624,281.580566 210.659317,282.257263 213.674683,282.707916 
	C213.567520,281.261993 213.489899,280.214661 213.341309,278.209808 
	C220.699539,285.628998 229.557663,283.187317 237.811523,284.618317 
	C236.224869,277.759674 221.528137,263.884216 215.318497,263.106537 
	C214.361176,262.986633 213.299896,263.125763 212.373398,263.419037 
	C203.035294,266.374908 193.609772,269.110046 184.464752,272.581451 
	C182.194962,273.443024 179.842957,276.503998 179.266098,278.961792 
	C177.449692,286.700653 176.298050,294.612305 175.266724,302.506409 
	C175.019989,304.394928 175.585632,307.289642 176.889481,308.335602 
	C185.806320,315.488800 194.980484,322.325684 204.192886,329.099670 
	C205.209122,329.846924 207.386703,330.208527 208.350067,329.627899 
	C212.606140,327.062988 216.615005,324.087891 220.713379,321.261292 
	C220.491776,320.802521 220.270157,320.343781 220.048538,319.885010 
	C215.798752,319.885010 211.548965,319.885010 207.442520,319.885010 
	C205.852402,315.138092 208.609161,315.215088 211.513626,315.220123 
	C230.162766,315.252441 248.811981,315.242523 267.461182,315.226440 
	C269.194183,315.224945 270.927063,315.083435 272.809448,315.000366 
	C271.156158,309.861237 266.652344,307.000854 260.701691,306.910400 
	C242.572586,306.634796 224.443115,306.383270 206.314087,306.102600 
	C205.024734,306.082642 203.737823,305.902649 202.528717,305.803528 
	C201.167770,302.091858 202.648834,301.100769 205.938263,301.206329 
	C215.906769,301.526184 225.878647,301.812469 235.851242,301.914307 
	C247.442047,302.032654 259.035004,301.941895 270.949951,301.941895 
	C270.140961,295.550507 266.534424,292.863312 260.140930,292.074219 
z"/>
<path fill="#91BDEB" opacity="1.000000" stroke="none" 
	d="
M263.768005,160.525055 
	C264.575684,160.308243 265.540649,160.357849 266.744873,160.681122 
	C265.964539,160.900360 264.944946,160.845917 263.768005,160.525055 
z"/>
<path fill="#91BDEB" opacity="1.000000" stroke="none" 
	d="
M121.289307,199.915939 
	C121.474152,199.327515 121.973045,198.716660 122.804184,198.115326 
	C122.625404,198.714386 122.114372,199.303955 121.289307,199.915939 
z"/>
<path fill="#91BDEB" opacity="1.000000" stroke="none" 
	d="
M269.734741,161.514008 
	C270.246216,161.311050 270.890747,161.349411 271.749023,161.636414 
	C271.264435,161.841827 270.566132,161.798584 269.734741,161.514008 
z"/>
<path fill="#91BDEB" opacity="1.000000" stroke="none" 
	d="
M276.807892,162.494003 
	C277.385651,162.421494 278.111511,162.627716 278.957367,163.095734 
	C278.370239,163.162598 277.663116,162.967667 276.807892,162.494003 
z"/>
<path fill="#FCFEFF" opacity="1.000000" stroke="none" 
	d="
M275.707001,248.508774 
	C275.113708,252.406357 274.640747,255.861786 274.106018,259.307587 
	C273.406494,263.815491 270.592468,265.284393 266.123108,264.815216 
	C266.123108,257.655975 266.007874,250.696365 266.157104,243.742447 
	C266.292633,237.428482 266.722107,231.120956 267.010345,224.810074 
	C267.236969,219.848343 273.630188,215.749893 278.134979,218.079926 
	C288.369141,223.373383 297.826508,229.331329 298.611359,242.738297 
	C299.017822,249.681335 300.415039,256.561707 301.120514,263.495209 
	C301.293884,265.199249 301.079071,267.474121 300.074158,268.678162 
	C294.652252,275.174500 289.341461,281.067474 279.171417,280.481384 
	C269.058014,279.898590 259.595551,279.376984 252.277267,270.358551 
	C255.601074,269.599243 257.859955,267.899353 262.004181,269.743256 
	C269.208984,272.948944 277.425964,267.584930 278.988708,259.840515 
	C280.264221,253.519440 281.564514,247.184036 282.346130,240.792908 
	C282.626770,238.497803 281.424377,236.021332 280.820557,233.271179 
	C278.491394,232.208496 276.790771,232.912216 276.552795,236.108154 
	C276.256378,240.089493 276.046875,244.077316 275.707001,248.508774 
z"/>
<path fill="#FCFDFF" opacity="1.000000" stroke="none" 
	d="
M245.854797,176.171326 
	C252.372818,188.314468 258.706085,200.143311 264.926758,211.761856 
	C261.406830,212.411942 258.124298,213.018188 253.386627,213.893188 
	C248.673813,203.404907 243.107315,191.832458 238.427704,179.911880 
	C237.495621,177.537491 239.955704,173.831467 240.851593,170.739471 
	C241.478134,170.798431 242.104691,170.857391 242.731232,170.916351 
	C243.710831,172.563248 244.690430,174.210129 245.854797,176.171326 
z"/>
<path fill="#FAFCFE" opacity="1.000000" stroke="none" 
	d="
M252.049271,223.907898 
	C251.161728,226.822556 250.312057,229.329727 249.462402,231.836899 
	C240.862152,219.008987 233.440674,206.395401 230.413742,191.894180 
	C229.856125,189.222855 231.499023,186.092224 232.126221,183.173584 
	C232.604141,183.177780 233.082062,183.181992 233.559982,183.186188 
	C234.077499,184.088562 234.656128,184.961746 235.103195,185.897781 
	C240.192917,196.554276 245.296539,207.204468 250.303696,217.899765 
	C251.127457,219.659302 251.503967,221.628250 252.049271,223.907898 
z"/>
<path fill="#FCFDFF" opacity="1.000000" stroke="none" 
	d="
M250.970322,235.953369 
	C252.226929,235.167877 253.173401,234.570709 254.191513,233.928345 
	C257.326508,238.441208 257.785522,242.940521 254.799454,247.159698 
	C250.516876,253.210831 247.758209,259.557770 249.303299,267.346893 
	C242.668015,264.581177 240.954025,262.079010 240.908203,255.629410 
	C240.904648,255.129578 240.966141,254.621628 240.898636,254.131058 
	C239.743637,245.737915 241.667938,239.024902 250.970322,235.953369 
z"/>
<path fill="#F6FAFE" opacity="1.000000" stroke="none" 
	d="
M260.581970,234.572220 
	C257.481598,229.849594 255.435089,225.140488 258.279694,219.927048 
	C258.932281,218.731018 260.477020,218.021805 261.611176,217.088531 
	C261.979706,218.361267 262.754547,219.670410 262.644409,220.900284 
	C262.229797,225.530304 261.527008,230.134537 260.581970,234.572220 
z"/>
<path fill="#F4F9FD" opacity="1.000000" stroke="none" 
	d="
M258.430969,250.416748 
	C259.107697,249.264175 259.599518,248.430878 260.172729,247.459686 
	C262.600464,255.123138 260.195648,262.064667 254.599899,263.824036 
	C252.196045,258.444427 256.220093,254.864227 258.430969,250.416748 
z"/>
<path fill="#F4F9FD" opacity="1.000000" stroke="none" 
	d="
M261.447357,245.546616 
	C261.428406,245.500473 261.466309,245.592758 261.447357,245.546616 
z"/>
<path fill="#FBFDFE" opacity="1.000000" stroke="none" 
	d="
M260.560883,292.135651 
	C266.534424,292.863312 270.140961,295.550507 270.949951,301.941895 
	C259.035004,301.941895 247.442047,302.032654 235.851242,301.914307 
	C225.878647,301.812469 215.906769,301.526184 205.938263,301.206329 
	C202.648834,301.100769 201.167770,302.091858 202.528717,305.803528 
	C203.737823,305.902649 205.024734,306.082642 206.314087,306.102600 
	C224.443115,306.383270 242.572586,306.634796 260.701691,306.910400 
	C266.652344,307.000854 271.156158,309.861237 272.809448,315.000366 
	C270.927063,315.083435 269.194183,315.224945 267.461182,315.226440 
	C248.811981,315.242523 230.162766,315.252441 211.513626,315.220123 
	C208.609161,315.215088 205.852402,315.138092 207.442520,319.885010 
	C211.548965,319.885010 215.798752,319.885010 220.048538,319.885010 
	C220.270157,320.343781 220.491776,320.802521 220.713379,321.261292 
	C216.615005,324.087891 212.606140,327.062988 208.350067,329.627899 
	C207.386703,330.208527 205.209122,329.846924 204.192886,329.099670 
	C194.980484,322.325684 185.806320,315.488800 176.889481,308.335602 
	C175.585632,307.289642 175.019989,304.394928 175.266724,302.506409 
	C176.298050,294.612305 177.449692,286.700653 179.266098,278.961792 
	C179.842957,276.503998 182.194962,273.443024 184.464752,272.581451 
	C193.609772,269.110046 203.035294,266.374908 212.373398,263.419037 
	C213.299896,263.125763 214.361176,262.986633 215.318497,263.106537 
	C221.528137,263.884216 236.224869,277.759674 237.811523,284.618317 
	C229.557663,283.187317 220.699539,285.628998 213.341309,278.209808 
	C213.489899,280.214661 213.567520,281.261993 213.674683,282.707916 
	C210.659317,282.257263 207.226624,281.580566 208.481552,286.628632 
	C225.833160,288.457703 242.987045,290.265961 260.560883,292.135651 
z"/>
</svg>